<?xml version="1.0" standalone="no"?>
<!DOCTYPE svg PUBLIC "-//W3C//DTD SVG 20010904//EN"
 "http://www.w3.org/TR/2001/REC-SVG-20010904/DTD/svg10.dtd">
<svg version="1.0" xmlns="http://www.w3.org/2000/svg"
 width="976.000000pt" height="976.000000pt" viewBox="0 0 976.000000 976.000000"
 preserveAspectRatio="xMidYMid meet">
<metadata>
Created by potrace 1.11, written by Peter Selinger 2001-2013
</metadata>
<g transform="translate(0.000000,976.000000) scale(0.100000,-0.100000)"
fill="#000000" stroke="none">
<path d="M5959 7637 c-4 -5 -8 -276 -14 -874 l-6 -652 43 -11 c24 -6 52 -14
63 -17 11 -4 25 -8 30 -9 23 -5 121 -33 135 -38 8 -3 26 -8 40 -10 25 -5 43
-10 155 -41 33 -10 67 -19 75 -20 8 -2 15 -4 15 -5 0 -1 7 -3 15 -5 8 -1 42
-11 75 -20 33 -10 61 -17 62 -17 3 1 103 -27 123 -35 8 -3 22 -7 30 -8 8 -2
98 -26 200 -55 102 -28 192 -53 200 -55 17 -4 159 -43 295 -81 50 -14 140 -38
200 -55 129 -35 96 -26 325 -89 102 -29 192 -53 200 -56 8 -2 49 -13 90 -24
41 -11 83 -22 92 -25 9 -2 26 -8 37 -14 11 -6 22 -7 25 -3 2 4 -13 62 -36 128
-22 65 -41 124 -43 129 -1 6 -5 17 -8 25 -9 22 -93 267 -95 280 -1 3 -18 50
-37 105 -20 55 -59 168 -86 250 -28 83 -55 158 -60 167 -5 10 -9 23 -9 29 0
28 -85 181 -144 259 -84 112 -281 300 -314 300 -6 0 -12 4 -14 8 -4 11 -92 63
-153 91 -45 21 -77 33 -125 46 -8 2 -53 16 -100 30 -47 15 -92 28 -100 30 -55
12 -76 19 -85 25 -5 4 -23 10 -40 13 -16 3 -77 19 -135 37 -96 29 -149 44
-190 54 -8 2 -44 13 -80 24 -36 11 -99 30 -140 42 -41 12 -103 30 -137 41 -34
10 -71 19 -82 19 -11 0 -22 4 -25 9 -3 5 -23 12 -43 17 -21 4 -40 8 -43 9 -69
20 -93 27 -132 39 -27 8 -49 14 -49 13z"/>
<path d="M5438 7538 c-8 -7 -27 -20 -43 -29 -17 -9 -174 -100 -350 -204 -176
-104 -329 -193 -340 -199 -11 -6 -31 -18 -45 -27 -22 -14 -78 -47 -260 -153
-25 -15 -60 -34 -77 -43 -18 -9 -33 -20 -33 -25 0 -4 -4 -8 -10 -8 -5 0 -47
-22 -94 -50 -47 -27 -89 -50 -95 -50 -6 0 -11 -4 -11 -8 0 -4 -30 -23 -66 -42
-36 -19 -70 -42 -74 -51 -5 -9 -11 -40 -14 -70 -3 -30 -8 -72 -10 -94 -14
-108 -20 -166 -30 -265 -3 -30 -7 -66 -10 -80 -4 -23 -11 -85 -21 -195 -5 -47
-11 -109 -21 -185 -3 -30 -8 -68 -9 -85 -2 -16 -4 -30 -5 -30 0 0 -3 -18 -4
-40 -5 -52 -16 -153 -21 -185 -4 -23 -10 -82 -21 -190 -2 -25 -6 -62 -9 -82
-2 -21 -1 -38 2 -38 3 0 27 13 52 28 25 16 53 31 61 35 8 4 31 17 50 28 132
80 309 179 319 179 6 0 11 4 11 8 0 4 22 19 50 33 27 13 50 27 50 30 0 4 11
10 25 13 14 4 25 11 25 17 0 6 4 8 9 5 5 -3 14 1 21 9 7 8 16 15 20 15 4 0 83
44 176 98 93 54 176 101 184 105 8 4 31 17 50 28 19 12 55 33 80 47 25 14 99
56 165 95 66 38 140 81 165 95 43 23 161 92 169 98 3 3 7 305 15 1142 1 182
-1 332 -5 332 -4 0 -14 -6 -21 -12z"/>
<path d="M1935 7216 c-75 -34 -131 -104 -153 -191 -10 -38 -14 -61 -27 -152
-3 -21 -8 -54 -11 -73 -3 -19 -7 -55 -10 -80 -3 -25 -7 -56 -9 -70 -2 -14 -7
-47 -10 -75 -4 -27 -8 -61 -10 -75 -7 -48 -25 -178 -30 -225 -2 -16 -6 -43 -9
-60 -3 -16 -8 -57 -12 -90 -3 -33 -8 -69 -10 -80 -3 -11 -7 -42 -10 -70 -2
-27 -6 -55 -8 -61 -2 -6 -1 -15 2 -21 6 -8 324 -168 402 -203 14 -5 45 -22 69
-35 24 -14 48 -25 52 -25 5 0 30 -13 56 -28 26 -16 51 -29 56 -30 4 -1 126
-60 271 -132 145 -71 268 -130 274 -130 6 0 12 -3 14 -7 2 -5 23 -18 48 -30
25 -12 141 -69 258 -127 140 -70 214 -101 217 -93 4 12 10 61 20 157 2 25 6
65 9 90 3 25 8 72 11 105 4 33 8 70 10 83 2 13 7 53 11 90 3 37 8 74 9 83 2 9
6 52 10 95 4 43 9 88 11 99 3 11 7 45 9 75 3 30 7 71 10 90 4 30 10 84 20 180
2 14 6 52 9 85 4 33 9 71 11 85 2 14 7 57 11 95 4 39 10 94 14 123 l7 53 -41
22 c-23 11 -43 21 -46 22 -5 0 -210 86 -265 111 -16 7 -70 29 -120 50 -49 20
-96 41 -102 46 -7 6 -13 8 -13 5 0 -5 -52 17 -177 74 -24 10 -46 19 -49 19 -7
0 -222 91 -322 136 -29 13 -58 24 -65 24 -7 0 -17 4 -22 9 -6 4 -46 23 -90 41
-108 44 -208 50 -280 16z"/>
<path d="M5515 5646 c-11 -6 -42 -25 -70 -41 -48 -28 -64 -38 -145 -83 -19
-10 -89 -50 -155 -89 -66 -38 -129 -74 -140 -81 -11 -6 -54 -31 -95 -55 -41
-24 -82 -47 -90 -50 -8 -4 -28 -15 -45 -25 -67 -41 -276 -162 -280 -162 -3 0
-29 -16 -59 -35 -30 -19 -57 -35 -60 -35 -2 0 -39 -20 -80 -45 -42 -25 -81
-45 -85 -45 -5 0 -11 -4 -13 -8 -1 -4 -48 -33 -103 -64 -129 -72 -326 -185
-345 -198 -8 -6 -25 -14 -37 -19 -18 -9 -32 -31 -39 -66 -1 -5 -23 -88 -49
-184 -26 -95 -49 -182 -51 -192 -2 -11 -6 -27 -9 -36 -3 -10 -23 -85 -45 -168
-23 -82 -43 -157 -45 -165 -16 -59 -57 -218 -60 -233 -2 -10 -9 -32 -15 -50
-12 -35 -118 -438 -126 -476 -3 -14 -7 -28 -10 -33 -3 -4 -7 -16 -9 -25 -1
-10 -10 -45 -19 -78 -9 -33 -18 -67 -20 -75 -2 -8 -9 -35 -16 -60 -7 -25 -14
-52 -15 -60 -10 -44 -99 -373 -114 -422 -14 -44 -15 -58 -5 -62 6 -2 15 -2 18
2 4 3 13 7 21 8 7 1 58 16 112 32 81 25 170 51 193 57 20 5 128 37 140 42 8 3
20 7 25 8 6 2 37 10 70 20 33 9 72 19 88 22 15 3 27 10 27 16 0 6 3 8 6 5 3
-4 36 3 72 14 37 10 72 20 77 22 6 1 37 11 70 21 33 10 65 19 70 21 6 1 111
32 235 69 124 36 263 78 310 92 47 13 130 38 185 54 55 17 108 32 118 34 9 3
25 7 35 10 9 2 69 20 132 40 63 19 124 37 135 40 11 2 58 16 105 30 47 14 92
27 100 30 8 2 44 13 80 23 67 20 303 90 330 97 17 5 82 24 185 55 39 12 75 23
80 24 6 1 30 9 55 16 25 7 50 15 55 16 6 2 42 12 80 24 39 12 75 22 80 24 30
7 55 18 55 24 0 4 -12 39 -26 77 -14 39 -28 79 -30 90 -3 11 -10 29 -14 40 -5
11 -36 99 -70 195 -34 96 -70 198 -80 225 -10 28 -33 91 -50 140 -18 50 -45
126 -60 170 -16 44 -48 134 -71 200 -22 66 -45 129 -49 140 -13 31 -23 59 -25
70 -2 6 -13 36 -25 67 -12 32 -20 59 -19 60 1 2 -3 13 -10 26 -7 13 -14 31
-16 40 -2 9 -16 49 -30 87 -15 39 -28 75 -30 80 -1 6 -5 17 -8 25 -16 43 -61
170 -102 290 -26 74 -50 144 -55 155 -13 33 -44 120 -45 125 -2 18 -50 140
-54 139 -3 -1 -15 -6 -26 -13z"/>
<path d="M5986 5651 c-4 -6 36 -131 64 -196 5 -11 11 -29 13 -40 3 -11 23 -69
45 -130 22 -60 50 -139 62 -175 21 -60 28 -80 51 -135 7 -19 67 -188 73 -210
2 -5 6 -17 9 -25 3 -8 29 -80 57 -160 28 -80 60 -168 70 -195 11 -28 20 -57
20 -66 0 -8 4 -19 8 -24 5 -6 18 -41 31 -80 13 -38 27 -79 32 -90 6 -12 11
-27 13 -35 2 -8 8 -28 15 -45 7 -16 19 -50 27 -75 9 -25 18 -52 21 -60 4 -8 7
-17 8 -20 4 -19 29 -87 34 -95 3 -5 6 -14 7 -20 1 -5 11 -35 22 -65 11 -30 51
-140 88 -245 37 -104 68 -192 70 -194 1 -2 22 -5 46 -7 24 -2 70 -6 103 -9 33
-3 92 -7 130 -10 39 -3 88 -7 110 -10 22 -2 72 -7 110 -10 76 -6 154 -12 255
-21 36 -3 88 -7 115 -9 28 -2 73 -6 100 -9 28 -3 88 -8 135 -12 47 -3 101 -7
120 -9 19 -3 67 -7 105 -10 39 -2 95 -7 125 -10 30 -2 87 -7 125 -10 39 -3 89
-8 112 -10 24 -3 80 -7 125 -11 46 -3 99 -8 118 -9 19 -2 76 -7 125 -11 101
-7 140 -11 140 -13 0 -1 38 -4 85 -6 47 -2 101 -7 120 -9 19 -3 67 -8 105 -11
39 -2 102 -8 140 -11 153 -14 225 -8 254 21 24 23 -16 115 -119 275 -51 80
-112 174 -135 210 -23 36 -57 90 -77 120 -20 30 -70 109 -112 175 -42 66 -84
130 -93 143 -9 13 -22 32 -27 43 -6 11 -49 78 -96 150 -117 179 -117 180 -136
214 -9 16 -23 35 -30 43 -8 7 -14 20 -14 28 0 8 -4 14 -8 14 -5 0 -19 20 -32
45 -13 25 -26 45 -30 45 -4 0 -10 8 -13 18 -4 9 -33 58 -66 107 -33 50 -82
125 -108 168 -40 64 -54 79 -83 87 -19 5 -37 9 -40 9 -3 0 -31 9 -62 20 -32
11 -58 18 -58 16 0 -1 -21 4 -47 12 -51 15 -176 51 -205 58 -10 2 -93 25 -185
50 -92 26 -174 49 -183 51 -37 9 -195 53 -195 54 0 1 -11 3 -25 6 -14 2 -36 8
-50 14 -14 5 -79 23 -145 40 -66 17 -127 34 -135 37 -18 7 -38 13 -65 18 -11
2 -60 16 -110 30 -49 14 -97 28 -105 30 -8 2 -148 40 -310 85 -458 127 -514
142 -536 146 -12 2 -40 10 -62 18 -23 8 -44 11 -46 7z"/>
<path d="M1386 5367 c-50 -78 -108 -171 -129 -207 -22 -36 -44 -66 -48 -68 -5
-2 -9 -7 -9 -12 0 -9 -510 -824 -530 -847 -5 -7 -10 -14 -10 -17 0 -3 -40 -68
-90 -145 -49 -78 -90 -145 -90 -150 0 -5 -3 -11 -8 -13 -4 -1 -23 -28 -42 -58
-58 -94 -151 -242 -197 -312 -24 -37 -43 -70 -43 -73 0 -3 -15 -27 -33 -53
-47 -66 -130 -211 -144 -250 -16 -45 -10 -150 11 -191 23 -43 80 -96 131 -120
37 -17 206 -67 264 -78 14 -2 29 -7 33 -10 11 -6 291 -82 333 -90 17 -2 36
-10 43 -15 6 -6 12 -8 12 -5 0 3 15 1 33 -4 62 -19 172 -50 197 -55 14 -3 56
-14 95 -26 38 -11 79 -22 90 -24 12 -2 50 -13 85 -24 34 -11 69 -20 76 -20 7
0 33 -6 56 -14 24 -7 81 -24 128 -36 47 -12 124 -33 171 -47 47 -13 95 -25
105 -28 10 -2 35 -9 54 -15 19 -6 46 -13 60 -16 14 -3 45 -11 70 -19 25 -8 54
-16 65 -18 11 -2 40 -9 65 -16 25 -8 52 -15 60 -16 8 -2 15 -4 15 -5 0 -1 7
-3 15 -5 8 -2 49 -13 90 -25 41 -11 84 -23 95 -25 11 -3 50 -13 87 -24 l68
-19 12 41 c6 23 12 47 14 52 1 6 9 37 18 70 9 33 19 68 21 77 2 9 13 50 24 90
25 91 82 308 86 328 2 8 4 15 5 15 1 0 3 7 5 15 2 8 13 51 25 95 12 44 23 87
25 95 2 8 4 15 5 15 1 0 3 7 5 15 4 22 60 231 90 340 14 52 28 104 29 115 2
11 4 20 5 20 2 0 4 7 6 15 4 23 84 320 95 355 5 17 11 41 14 55 3 14 15 59 26
100 26 96 29 105 35 133 3 12 11 45 20 72 14 49 52 191 61 230 11 43 13 50 14
50 1 0 4 14 6 30 l4 30 -286 140 c-157 77 -296 145 -307 152 -43 22 -126 61
-146 68 -12 3 -21 11 -21 16 0 5 -5 9 -11 9 -10 0 -229 107 -780 380 -133 66
-242 120 -243 120 0 0 -41 -64 -90 -143z"/>
</g>
</svg>
