<svg xmlns="http://www.w3.org/2000/svg" width="260" height="215" viewBox="0 0 260 215">
  <defs>
    <radialGradient id="a" cx="90.626%" cy="219.476%" r="576.069%" fx="90.626%" fy="219.476%">
      <stop stop-color="#009EE0" offset="0%"/>
      <stop stop-color="#005888" offset="100%"/>
    </radialGradient>
    <radialGradient id="b" cx="-6.531%" cy="130.663%" r="180.906%" fx="-6.531%" fy="130.663%">
      <stop stop-color="#009EE0" offset="0%"/>
      <stop stop-color="#005888" offset="100%"/>
    </radialGradient>
    <radialGradient id="c" cx="-43.059%" cy="111.605%" r="676.485%" fx="-43.059%" fy="111.605%">
      <stop stop-color="#009EE0" offset="0%"/>
      <stop stop-color="#005888" offset="100%"/>
    </radialGradient>
  </defs>
  <g fill="none" fill-rule="evenodd">
    <g fill="#009EE0" transform="translate(0 175)">
      <path d="M6.923 15.817C5.902 15.817 5.008 15.632 4.246 15.257 3.481 14.879 2.851 14.356 2.352 13.682 1.854 13.006 1.479 12.203 1.227 11.268.975 10.333.846 9.313.846 8.206.846 7.103.974 6.086 1.227 5.16 1.48 4.231 1.855 3.431 2.352 2.756 2.851 2.08 3.481 1.554 4.246 1.181 5.009.806 5.902.618 6.923.618 7.947.618 8.84.806 9.603 1.181 10.368 1.554 10.998 2.08 11.497 2.756 11.995 3.432 12.37 4.232 12.622 5.16 12.875 6.086 12.999 7.103 12.999 8.206 12.999 9.312 12.874 10.333 12.622 11.268 12.37 12.203 11.994 13.006 11.497 13.682 10.998 14.356 10.368 14.879 9.603 15.257 8.84 15.633 7.947 15.817 6.923 15.817zM6.923 14.528C7.715 14.528 8.395 14.377 8.968 14.068 9.542 13.761 10.021 13.33 10.403 12.77 10.784 12.21 11.068 11.543 11.246 10.764 11.434 9.989 11.528 9.135 11.528 8.206 11.528 7.282 11.435 6.428 11.246 5.649 11.068 4.874 10.784 4.207 10.403 3.655 10.022 3.104 9.543 2.676 8.968 2.368 8.394 2.059 7.715 1.906 6.923 1.906 6.133 1.906 5.448 2.059 4.865 2.368 4.287 2.677 3.81 3.104 3.435 3.655 3.058 4.207 2.78 4.874 2.598 5.649 2.411 6.427 2.32 7.282 2.32 8.206 2.32 9.135 2.411 9.988 2.598 10.764 2.78 11.543 3.058 12.21 3.435 12.77 3.81 13.33 4.287 13.761 4.865 14.068 5.448 14.377 6.133 14.528 6.923 14.528zM15.208 5.14C15.318 5.128 15.421 5.116 15.527 5.112 15.626 5.101 15.726 5.099 15.821 5.099 15.931 5.099 16.03 5.101 16.128 5.112 16.221 5.116 16.325 5.129 16.437 5.14 16.462 5.385 16.482 5.694 16.495 6.061 16.509 6.429 16.516 6.749 16.516 7.022 16.655 6.778 16.831 6.529 17.051 6.276 17.269 6.024 17.522 5.796 17.816 5.592 18.11 5.385 18.45 5.219 18.83 5.086 19.211 4.958 19.628 4.896 20.078 4.896 21.28 4.896 22.152 5.252 22.695 5.969 23.242 6.687 23.516 7.692 23.516 8.987L23.516 15.573C23.433 15.586 23.319 15.598 23.176 15.606 23.035 15.61 22.921 15.615 22.84 15.615 22.772 15.615 22.66 15.61 22.515 15.606 22.364 15.598 22.25 15.585 22.165 15.573L22.165 9.397C22.165 8.235 21.982 7.406 21.622 6.898 21.261 6.394 20.723 6.144 19.999 6.144 19.52 6.144 19.071 6.237 18.648 6.429 18.225 6.62 17.858 6.898 17.554 7.258 17.245 7.619 17.003 8.065 16.826 8.597 16.646 9.127 16.559 9.737 16.559 10.421L16.559 15.572C16.48 15.585 16.366 15.597 16.223 15.605 16.078 15.609 15.968 15.614 15.886 15.614 15.82 15.614 15.708 15.609 15.56 15.605 15.407 15.597 15.293 15.584 15.21 15.572L15.21 5.14 15.208 5.14zM26.42.537C26.499.522 26.613.513 26.756.506 26.901.498 27.013.496 27.096.496 27.16.496 27.272.498 27.421.506 27.572.513 27.687.523 27.769.537L27.769 13.158C27.769 13.514 27.812 13.792 27.892 13.987 27.975 14.186 28.076 14.329 28.201 14.418 28.321 14.505 28.456 14.562 28.609 14.582 28.758 14.603 28.897 14.613 29.017 14.613 29.17 14.613 29.326 14.602 29.488 14.582 29.652 14.561 29.79 14.536 29.896 14.508 29.966 14.675 30.012 14.852 30.043 15.042 30.066 15.232 30.086 15.411 30.101 15.572 29.911 15.64 29.695 15.688 29.456 15.718 29.218 15.744 28.996 15.757 28.791 15.757 28.505 15.757 28.217 15.728 27.933 15.664 27.645 15.605 27.39 15.489 27.164 15.317 26.94 15.145 26.76 14.916 26.623 14.621 26.486 14.329 26.42 13.943 26.42 13.467L26.42.537zM32.272 6.284L30.962 6.284C30.945 6.218 30.937 6.135 30.927 6.039 30.925 5.944 30.921 5.841 30.921 5.732 30.921 5.625 30.925 5.512 30.927 5.405 30.937 5.298 30.946 5.209 30.962 5.139L33.617 5.139 33.617 15.572C33.538 15.585 33.428 15.597 33.281 15.605 33.14 15.609 33.026 15.614 32.943 15.614 32.877 15.614 32.765 15.609 32.618 15.605 32.469 15.597 32.35 15.584 32.272 15.572L32.272 6.284zM31.597 2.583C31.583 2.461 31.573 2.31 31.566 2.133 31.556 1.955 31.556 1.806 31.556 1.684 31.556 1.572 31.556 1.439 31.566 1.276 31.572 1.112 31.583.975 31.597.868 31.718.851 31.871.841 32.043.835 32.223.828 32.373.822 32.497.822 32.605.822 32.74.828 32.903.835 33.069.841 33.204.852 33.314.868 33.328.975 33.339 1.112 33.345 1.276 33.353 1.439 33.358 1.572 33.358 1.684 33.358 1.806 33.354 1.955 33.345 2.133 33.339 2.31 33.328 2.461 33.314 2.583 33.204 2.598 33.069 2.605 32.903 2.611 32.739 2.622 32.605 2.624 32.497 2.624 32.373 2.624 32.224 2.622 32.043 2.611 31.871 2.605 31.717 2.598 31.597 2.583zM36.728 5.14C36.838 5.128 36.941 5.116 37.047 5.112 37.147 5.101 37.246 5.099 37.343 5.099 37.45 5.099 37.554 5.101 37.648 5.112 37.745 5.116 37.849 5.129 37.957 5.14 37.984 5.385 38.005 5.694 38.019 6.061 38.03 6.429 38.036 6.749 38.036 7.022 38.175 6.778 38.351 6.529 38.571 6.276 38.789 6.024 39.046 5.796 39.336 5.592 39.63 5.385 39.97 5.219 40.35 5.086 40.731 4.958 41.148 4.896 41.601 4.896 42.799 4.896 43.671 5.252 44.219 5.969 44.762 6.687 45.035 7.692 45.035 8.987L45.035 15.573C44.952 15.586 44.842 15.598 44.7 15.606 44.555 15.61 44.443 15.615 44.36 15.615 44.296 15.615 44.184 15.61 44.034 15.606 43.885 15.598 43.769 15.585 43.686 15.573L43.686 9.397C43.686 8.235 43.506 7.406 43.141 6.898 42.78 6.394 42.242 6.144 41.518 6.144 41.039 6.144 40.589 6.237 40.166 6.429 39.744 6.62 39.381 6.898 39.072 7.258 38.768 7.619 38.521 8.065 38.345 8.597 38.169 9.127 38.077 9.737 38.077 10.421L38.077 15.572C37.998 15.585 37.885 15.597 37.742 15.605 37.601 15.609 37.487 15.614 37.404 15.614 37.338 15.614 37.226 15.609 37.079 15.605 36.93 15.597 36.811 15.584 36.728 15.572L36.728 5.14 36.728 5.14zM48.798 10.562C48.798 11.955 49.121 12.974 49.761 13.629 50.402 14.283 51.363 14.613 52.646 14.613 53.164 14.613 53.643 14.567 54.086 14.478 54.532 14.391 54.965 14.271 55.387 14.122 55.453 14.271 55.508 14.453 55.549 14.675 55.59 14.893 55.615 15.092 55.63 15.266 55.234 15.445 54.77 15.581 54.241 15.676 53.706 15.772 53.128 15.818 52.502 15.818 51.603 15.818 50.826 15.685 50.179 15.42 49.53 15.155 48.997 14.782 48.583 14.306 48.166 13.828 47.857 13.261 47.661 12.598 47.464 11.937 47.365 11.209 47.365 10.422 47.365 9.654 47.458 8.94 47.64 8.271 47.825 7.604 48.104 7.017 48.479 6.511 48.856 6.005 49.337 5.61 49.921 5.327 50.51 5.04 51.214 4.896 52.031 4.896 52.713 4.896 53.318 5.012 53.853 5.245 54.381 5.476 54.829 5.798 55.192 6.215 55.552 6.629 55.826 7.131 56.01 7.709 56.192 8.287 56.285 8.919 56.285 9.601 56.285 9.726 56.283 9.881 56.275 10.07 56.269 10.26 56.258 10.428 56.244 10.563L48.798 10.563 48.798 10.562zM54.938 9.437C54.938 9.014 54.882 8.597 54.771 8.191 54.665 7.781 54.495 7.42 54.263 7.114 54.031 6.809 53.728 6.558 53.362 6.368 52.995 6.178 52.551 6.082 52.033 6.082 51.077 6.082 50.331 6.376 49.803 6.961 49.268 7.549 48.947 8.374 48.84 9.438L54.938 9.438 54.938 9.437zM63.265 9.069C63.275 9.135 63.286 9.243 63.292 9.384 63.3 9.529 63.302 9.653 63.302 9.763 63.302 9.872 63.3 9.993 63.292 10.13 63.286 10.267 63.275 10.37 63.265 10.437L57.881 10.437C57.871 10.371 57.86 10.267 57.852 10.13 57.842 9.993 57.842 9.872 57.842 9.763 57.842 9.653 57.842 9.529 57.852 9.384 57.86 9.242 57.871 9.135 57.881 9.069L63.265 9.069zM65.758.867C65.897.85 66.09.832 66.342.805 66.592.776 66.862.749 67.15.722 67.436.693 67.724.674 68.018.66 68.312.643 68.576.639 68.808.639 70.414.639 71.647.951 72.509 1.572 73.367 2.192 73.796 3.155 73.796 4.466 73.796 4.891 73.732 5.274 73.603 5.622 73.475 5.97 73.303 6.283 73.081 6.562 72.861 6.844 72.608 7.079 72.314 7.269 72.02 7.459 71.719 7.603 71.404 7.698 71.827 7.754 72.235 7.864 72.633 8.034 73.029 8.206 73.377 8.444 73.686 8.751 73.991 9.06 74.237 9.439 74.42 9.897 74.607 10.355 74.697 10.902 74.697 11.544 74.697 12.281 74.552 12.916 74.258 13.446 73.964 13.978 73.555 14.42 73.031 14.774 72.505 15.132 71.885 15.394 71.168 15.56 70.451 15.734 69.674 15.817 68.824 15.817 68.607 15.817 68.364 15.812 68.091 15.798 67.817 15.785 67.54 15.769 67.26 15.748 66.982 15.727 66.709 15.7 66.444 15.663 66.181 15.632 65.948 15.599 65.758 15.571L65.758.867zM69.113 7.125C70.217 7.125 71.028 6.881 71.536 6.388 72.05 5.899 72.305 5.256 72.305 4.465 72.305 3.727 72.036 3.11 71.499 2.611 70.958 2.116 70.111 1.866 68.95 1.866 68.594 1.866 68.258 1.88 67.936 1.907 67.617 1.934 67.36 1.965 67.171 1.99L67.171 7.125 69.113 7.125 69.113 7.125zM67.171 14.429C67.36 14.453 67.617 14.479 67.936 14.499 68.257 14.52 68.593 14.528 68.95 14.528 69.485 14.528 70.003 14.48 70.517 14.386 71.029 14.291 71.482 14.127 71.876 13.895 72.272 13.664 72.589 13.359 72.829 12.973 73.063 12.592 73.185 12.116 73.185 11.543 73.185 10.969 73.081 10.488 72.876 10.101 72.671 9.711 72.395 9.396 72.039 9.152 71.685 8.903 71.266 8.725 70.789 8.617 70.314 8.508 69.8 8.456 69.253 8.456L67.17 8.456 67.17 14.429 67.171 14.429zM77.869 10.562C77.869 11.955 78.192 12.974 78.833 13.629 79.473 14.283 80.433 14.613 81.713 14.613 82.235 14.613 82.714 14.567 83.157 14.478 83.598 14.391 84.032 14.271 84.454 14.122 84.525 14.271 84.579 14.453 84.618 14.675 84.659 14.893 84.686 15.092 84.701 15.266 84.305 15.445 83.841 15.581 83.313 15.676 82.78 15.772 82.202 15.818 81.574 15.818 80.67 15.818 79.897 15.685 79.251 15.42 78.605 15.155 78.07 14.782 77.655 14.306 77.238 13.828 76.934 13.261 76.733 12.598 76.536 11.937 76.437 11.209 76.437 10.422 76.437 9.654 76.53 8.94 76.713 8.271 76.898 7.604 77.177 7.017 77.552 6.511 77.925 6.005 78.41 5.61 78.994 5.327 79.58 5.04 80.283 4.896 81.103 4.896 81.781 4.896 82.39 5.012 82.921 5.245 83.453 5.476 83.901 5.798 84.262 6.215 84.624 6.629 84.898 7.131 85.082 7.709 85.265 8.287 85.356 8.919 85.356 9.601 85.356 9.726 85.352 9.881 85.345 10.07 85.341 10.26 85.326 10.428 85.316 10.563L77.869 10.563 77.869 10.562zM84.005 9.437C84.005 9.014 83.953 8.597 83.841 8.191 83.736 7.781 83.561 7.42 83.333 7.114 83.097 6.809 82.8 6.558 82.43 6.368 82.063 6.178 81.619 6.082 81.103 6.082 80.148 6.082 79.404 6.376 78.869 6.961 78.341 7.549 78.017 8.374 77.91 9.438L84.005 9.438 84.005 9.437zM88.302 6.284L86.524 6.284C86.509 6.218 86.499 6.129 86.493 6.018 86.485 5.911 86.483 5.798 86.483 5.693 86.483 5.582 86.485 5.48 86.493 5.384 86.499 5.29 86.51 5.208 86.524 5.139L88.302 5.139 88.302 3.175 89.57 1.927 89.653 1.927 89.653 5.139 92.478 5.139C92.488 5.208 92.499 5.29 92.507 5.384 92.513 5.48 92.517 5.581 92.517 5.693 92.517 5.798 92.513 5.911 92.507 6.018 92.499 6.128 92.488 6.217 92.478 6.284L89.653 6.284 89.653 13.077C89.653 13.419 89.698 13.686 89.788 13.886 89.875 14.082 89.989 14.239 90.134 14.346 90.277 14.453 90.438 14.529 90.627 14.562 90.809 14.595 90.996 14.614 91.187 14.614 91.666 14.614 92.08 14.553 92.437 14.429 92.532 14.782 92.601 15.162 92.642 15.573 92.151 15.724 91.575 15.8 90.924 15.8 90.145 15.8 89.515 15.592 89.029 15.176 88.544 14.759 88.302 14.081 88.302 13.139L88.302 6.284zM95.134 10.562C95.134 11.955 95.455 12.974 96.095 13.629 96.738 14.283 97.699 14.613 98.98 14.613 99.501 14.613 99.981 14.567 100.425 14.478 100.868 14.391 101.301 14.271 101.724 14.122 101.792 14.271 101.844 14.453 101.886 14.675 101.928 14.893 101.954 15.092 101.969 15.266 101.575 15.445 101.107 15.581 100.576 15.676 100.048 15.772 99.465 15.818 98.84 15.818 97.938 15.818 97.163 15.685 96.517 15.42 95.868 15.155 95.336 14.782 94.919 14.306 94.508 13.828 94.195 13.261 93.999 12.598 93.802 11.937 93.705 11.209 93.705 10.422 93.705 9.654 93.794 8.94 93.979 8.271 94.166 7.604 94.443 7.017 94.82 6.511 95.193 6.005 95.676 5.61 96.26 5.327 96.848 5.04 97.551 4.896 98.367 4.896 99.051 4.896 99.656 5.012 100.189 5.245 100.719 5.476 101.165 5.798 101.53 6.215 101.89 6.629 102.164 7.131 102.346 7.709 102.533 8.287 102.624 8.919 102.624 9.601 102.624 9.726 102.62 9.881 102.613 10.07 102.607 10.26 102.596 10.428 102.582 10.563L95.134 10.563 95.134 10.562zM101.272 9.437C101.272 9.014 101.218 8.597 101.106 8.191 100.998 7.781 100.828 7.42 100.596 7.114 100.366 6.809 100.063 6.558 99.697 6.368 99.331 6.178 98.886 6.082 98.366 6.082 97.41 6.082 96.667 6.376 96.136 6.961 95.603 7.549 95.284 8.374 95.175 9.438L101.272 9.438 101.272 9.437zM105.732 6.284L104.424 6.284C104.409 6.218 104.399 6.135 104.393 6.039 104.385 5.944 104.383 5.841 104.383 5.732 104.383 5.625 104.385 5.512 104.393 5.405 104.399 5.298 104.41 5.209 104.424 5.139L107.083 5.139 107.083 15.572C107 15.585 106.886 15.597 106.743 15.605 106.602 15.609 106.488 15.614 106.408 15.614 106.34 15.614 106.227 15.609 106.082 15.605 105.931 15.597 105.813 15.584 105.732 15.572L105.732 6.284 105.732 6.284zM105.057 2.583C105.045 2.461 105.035 2.31 105.026 2.133 105.02 1.955 105.016 1.806 105.016 1.684 105.016 1.572 105.02 1.439 105.026 1.276 105.034 1.112 105.045.975 105.057.868 105.18.851 105.331.841 105.509.835 105.685.828 105.834.822 105.959.822 106.066.822 106.206.828 106.367.835 106.531.841 106.667.852 106.775.868 106.79.975 106.8 1.112 106.806 1.276 106.814 1.439 106.816 1.572 106.816 1.684 106.816 1.806 106.814 1.955 106.806 2.133 106.8 2.31 106.789 2.461 106.775 2.583 106.667 2.598 106.53 2.605 106.367 2.611 106.205 2.622 106.066 2.624 105.959 2.624 105.834 2.624 105.685 2.622 105.509 2.611 105.331 2.605 105.179 2.598 105.057 2.583zM110.192.537C110.273.522 110.387.513 110.527.506 110.674.498 110.784.496 110.867.496 110.938.496 111.043.498 111.193.506 111.346.513 111.46.523 111.543.537L111.543 13.158C111.543 13.514 111.585 13.792 111.663 13.987 111.746 14.186 111.848 14.329 111.972 14.418 112.094 14.505 112.231 14.562 112.38 14.582 112.529 14.603 112.668 14.613 112.788 14.613 112.937 14.613 113.097 14.602 113.26 14.582 113.422 14.561 113.561 14.536 113.669 14.508 113.737 14.675 113.787 14.852 113.814 15.042 113.839 15.232 113.861 15.411 113.872 15.572 113.682 15.64 113.468 15.688 113.23 15.718 112.989 15.744 112.768 15.757 112.564 15.757 112.28 15.757 111.992 15.728 111.704 15.664 111.42 15.605 111.165 15.489 110.937 15.317 110.711 15.145 110.531 14.916 110.396 14.621 110.257 14.329 110.191 13.943 110.191 13.467L110.191.537 110.192.537zM116.044 6.284L114.732 6.284C114.717 6.218 114.711 6.135 114.703 6.039 114.693 5.944 114.693 5.841 114.693 5.732 114.693 5.625 114.693 5.512 114.703 5.405 114.711 5.298 114.718 5.209 114.732 5.139L117.395 5.139 117.395 15.572C117.31 15.585 117.2 15.597 117.055 15.605 116.912 15.609 116.798 15.614 116.719 15.614 116.649 15.614 116.539 15.609 116.389 15.605 116.24 15.597 116.122 15.584 116.043 15.572L116.043 6.284 116.044 6.284zM115.369 2.583C115.352 2.461 115.344 2.31 115.338 2.133 115.332 1.955 115.328 1.806 115.328 1.684 115.328 1.572 115.332 1.439 115.338 1.276 115.344 1.112 115.353.975 115.369.868 115.491.851 115.642.841 115.817.835 115.993.828 116.144.822 116.267.822 116.377.822 116.514.828 116.679.835 116.841.841 116.975.852 117.087.868 117.102.975 117.108 1.112 117.118 1.276 117.124 1.439 117.128 1.572 117.128 1.684 117.128 1.806 117.124 1.955 117.118 2.133 117.108 2.31 117.101 2.461 117.087 2.583 116.975 2.598 116.84 2.605 116.679 2.611 116.513 2.622 116.377 2.624 116.267 2.624 116.144 2.624 115.993 2.622 115.817 2.611 115.643 2.605 115.491 2.598 115.369 2.583zM125.882 14.528C127.082 14.556 127.938 14.805 128.45 15.278 128.964 15.744 129.217 16.372 129.217 17.147 129.217 17.682 129.082 18.163 128.809 18.589 128.538 19.02 128.154 19.387 127.663 19.695 127.17 20.002 126.589 20.238 125.914 20.413 125.242 20.58 124.507 20.668 123.715 20.668 123.102 20.668 122.54 20.62 122.028 20.522 121.516 20.429 121.072 20.276 120.695 20.06 120.32 19.853 120.034 19.573 119.828 19.222 119.625 18.876 119.519 18.451 119.519 17.946 119.519 17.426 119.668 16.93 119.971 16.452 120.272 15.973 120.659 15.619 121.138 15.39 120.877 15.224 120.659 15.017 120.479 14.766 120.307 14.511 120.216 14.203 120.216 13.835 120.216 13.303 120.341 12.861 120.593 12.505 120.845 12.151 121.181 11.829 121.608 11.543 121.129 11.242 120.746 10.84 120.462 10.337 120.174 9.831 120.033 9.231 120.033 8.534 120.033 8.028 120.116 7.555 120.288 7.112 120.455 6.671 120.711 6.283 121.055 5.96 121.393 5.628 121.816 5.371 122.311 5.181 122.811 4.991 123.385 4.895 124.04 4.895 124.6 4.895 125.099 4.965 125.536 5.111 125.971 5.252 126.352 5.44 126.682 5.671 126.819 5.617 126.987 5.557 127.194 5.488 127.397 5.42 127.623 5.359 127.865 5.314 128.114 5.266 128.365 5.224 128.623 5.189 128.882 5.156 129.135 5.139 129.381 5.139 129.433 5.342 129.46 5.571 129.46 5.813 129.46 6.072 129.433 6.308 129.381 6.509L127.44 6.509C127.627 6.81 127.775 7.129 127.879 7.46 127.979 7.794 128.03 8.152 128.03 8.534 128.03 9.122 127.926 9.64 127.723 10.088 127.518 10.54 127.238 10.917 126.873 11.224 126.512 11.531 126.092 11.767 125.607 11.933 125.122 12.094 124.598 12.177 124.038 12.177 123.452 12.177 122.939 12.103 122.506 11.953 122.123 12.197 121.853 12.432 121.696 12.658 121.54 12.882 121.462 13.137 121.462 13.425 121.462 13.562 121.483 13.69 121.524 13.815 121.566 13.937 121.649 14.051 121.779 14.15 121.907 14.254 122.088 14.335 122.32 14.397 122.556 14.458 122.853 14.486 123.222 14.486L125.882 14.528zM122.977 15.757C122.339 15.744 121.823 15.925 121.433 16.298 121.046 16.675 120.851 17.168 120.851 17.784 120.851 18.109 120.928 18.383 121.077 18.602 121.224 18.82 121.433 18.988 121.699 19.114 121.966 19.236 122.277 19.319 122.632 19.367 122.984 19.417 123.361 19.439 123.757 19.439 125.028 19.439 126.014 19.223 126.725 18.794 127.434 18.365 127.788 17.849 127.788 17.25 127.788 16.73 127.608 16.363 127.253 16.146 126.901 15.928 126.323 15.812 125.517 15.798L122.977 15.757zM121.464 8.535C121.464 9.245 121.672 9.84 122.088 10.325 122.503 10.81 123.157 11.053 124.04 11.053 124.929 11.053 125.584 10.811 126.007 10.325 126.429 9.84 126.641 9.245 126.641 8.535 126.641 7.826 126.43 7.229 126.007 6.744 125.584 6.262 124.929 6.018 124.04 6.018 123.157 6.018 122.502 6.261 122.088 6.744 121.671 7.229 121.464 7.826 121.464 8.535zM130.896 5.14C130.975 5.128 131.092 5.116 131.247 5.112 131.395 5.101 131.502 5.099 131.572 5.099 131.655 5.099 131.764 5.101 131.907 5.112 132.049 5.116 132.165 5.129 132.247 5.14L132.247 11.011C132.247 11.749 132.322 12.352 132.472 12.823 132.62 13.294 132.843 13.661 133.137 13.927 133.427 14.193 133.787 14.377 134.21 14.479 134.633 14.583 135.109 14.634 135.64 14.634 136.09 14.634 136.496 14.609 136.849 14.562 137.205 14.512 137.518 14.45 137.791 14.367L137.791 5.14C137.874 5.128 137.988 5.116 138.14 5.112 138.288 5.101 138.397 5.099 138.465 5.099 138.548 5.099 138.659 5.101 138.801 5.112 138.947 5.116 139.058 5.129 139.141 5.14L139.141 15.308C138.635 15.445 138.076 15.561 137.452 15.664 136.833 15.769 136.194 15.817 135.542 15.817 134.899 15.817 134.298 15.756 133.73 15.634 133.164 15.512 132.673 15.278 132.258 14.929 131.842 14.581 131.51 14.101 131.263 13.487 131.017 12.874 130.897 12.074 130.897 11.091L130.897 5.14 130.896 5.14zM142.25 5.14C142.359 5.128 142.464 5.116 142.565 5.112 142.669 5.101 142.768 5.099 142.861 5.099 142.973 5.099 143.077 5.101 143.17 5.112 143.264 5.116 143.367 5.129 143.479 5.14 143.502 5.385 143.523 5.694 143.538 6.061 143.553 6.429 143.559 6.749 143.559 7.022 143.698 6.778 143.874 6.529 144.091 6.276 144.311 6.024 144.564 5.796 144.859 5.592 145.153 5.385 145.489 5.219 145.872 5.086 146.254 4.958 146.67 4.896 147.12 4.896 148.322 4.896 149.194 5.252 149.737 5.969 150.284 6.687 150.557 7.692 150.557 8.987L150.557 15.573C150.475 15.586 150.363 15.598 150.217 15.606 150.076 15.61 149.965 15.615 149.882 15.615 149.814 15.615 149.701 15.61 149.552 15.606 149.403 15.598 149.287 15.585 149.206 15.573L149.206 9.397C149.206 8.235 149.023 7.406 148.663 6.898 148.303 6.394 147.76 6.144 147.038 6.144 146.561 6.144 146.112 6.237 145.689 6.429 145.266 6.62 144.899 6.898 144.59 7.258 144.285 7.619 144.043 8.065 143.862 8.597 143.69 9.127 143.599 9.737 143.599 10.421L143.599 15.572C143.516 15.585 143.406 15.597 143.258 15.605 143.117 15.609 143.006 15.614 142.923 15.614 142.855 15.614 142.746 15.609 142.598 15.605 142.447 15.597 142.332 15.584 142.249 15.572L142.249 5.14 142.25 5.14zM158.837 14.528C160.039 14.556 160.896 14.805 161.407 15.278 161.919 15.744 162.176 16.372 162.176 17.147 162.176 17.682 162.037 18.163 161.764 18.589 161.494 19.02 161.109 19.387 160.618 19.695 160.132 20.002 159.545 20.238 158.874 20.413 158.198 20.58 157.465 20.668 156.671 20.668 156.06 20.668 155.493 20.62 154.985 20.522 154.473 20.429 154.03 20.276 153.655 20.06 153.282 19.853 152.99 19.573 152.787 19.222 152.582 18.876 152.478 18.451 152.478 17.946 152.478 17.426 152.626 16.93 152.927 16.452 153.23 15.973 153.617 15.619 154.094 15.39 153.835 15.224 153.617 15.017 153.441 14.766 153.261 14.511 153.174 14.203 153.174 13.835 153.174 13.303 153.298 12.861 153.551 12.505 153.804 12.151 154.14 11.829 154.563 11.543 154.084 11.242 153.707 10.84 153.42 10.337 153.132 9.831 152.989 9.231 152.989 8.534 152.989 8.028 153.076 7.555 153.242 7.112 153.416 6.671 153.673 6.283 154.011 5.96 154.355 5.628 154.774 5.371 155.271 5.181 155.766 4.991 156.345 4.895 157 4.895 157.562 4.895 158.057 4.965 158.492 5.111 158.93 5.252 159.312 5.44 159.638 5.671 159.775 5.617 159.947 5.557 160.152 5.488 160.355 5.42 160.581 5.359 160.826 5.314 161.072 5.266 161.321 5.224 161.582 5.189 161.841 5.156 162.094 5.139 162.341 5.139 162.393 5.342 162.424 5.571 162.424 5.813 162.424 6.072 162.393 6.308 162.341 6.509L160.395 6.509C160.588 6.81 160.733 7.129 160.834 7.46 160.938 7.794 160.989 8.152 160.989 8.534 160.989 9.122 160.889 9.64 160.684 10.088 160.477 10.54 160.193 10.917 159.832 11.224 159.471 11.531 159.049 11.767 158.563 11.933 158.081 12.094 157.56 12.177 156.999 12.177 156.41 12.177 155.903 12.103 155.466 11.953 155.084 12.197 154.815 12.432 154.655 12.658 154.5 12.882 154.419 13.137 154.419 13.425 154.419 13.562 154.44 13.69 154.483 13.815 154.524 13.937 154.607 14.051 154.738 14.15 154.867 14.254 155.05 14.335 155.279 14.397 155.51 14.458 155.811 14.486 156.182 14.486L158.837 14.528zM155.934 15.757C155.292 15.744 154.78 15.925 154.393 16.298 154.005 16.675 153.81 17.168 153.81 17.784 153.81 18.109 153.882 18.383 154.032 18.602 154.181 18.82 154.393 18.988 154.656 19.114 154.924 19.236 155.234 19.319 155.589 19.367 155.945 19.417 156.318 19.439 156.714 19.439 157.981 19.439 158.971 19.223 159.68 18.794 160.391 18.365 160.743 17.849 160.743 17.25 160.743 16.73 160.566 16.363 160.21 16.146 159.858 15.928 159.28 15.812 158.472 15.798L155.934 15.757zM154.419 8.535C154.419 9.245 154.628 9.84 155.047 10.325 155.459 10.81 156.112 11.053 156.999 11.053 157.886 11.053 158.541 10.811 158.964 10.325 159.385 9.84 159.596 9.245 159.596 8.535 159.596 7.826 159.385 7.229 158.964 6.744 158.541 6.262 157.886 6.018 156.999 6.018 156.112 6.018 155.459 6.261 155.047 6.744 154.628 7.229 154.419 7.826 154.419 8.535z"/>
    </g>
    <g fill="#3E3E40" transform="translate(11 150)">
      <path d="M.905 1.475C1.382 1.401 1.937 1.342 2.563 1.297 3.191 1.251 3.977 1.229 4.915 1.229 5.738 1.229 6.515 1.297 7.245 1.432 7.978 1.567 8.619 1.794 9.164 2.114 9.707 2.437 10.136 2.864 10.451 3.403 10.763 3.942 10.921 4.613 10.921 5.422 10.921 5.899 10.849 6.342 10.708 6.752 10.565 7.162 10.375 7.523 10.136 7.83 9.898 8.137 9.631 8.39 9.33 8.588 9.032 8.791 8.727 8.916 8.412 8.959 8.756 9.005 9.136 9.108 9.556 9.274 9.974 9.437 10.362 9.678 10.723 10.002 11.079 10.325 11.376 10.735 11.618 11.245 11.858 11.751 11.974 12.364 11.974 13.083 11.974 14.053 11.792 14.849 11.425 15.469 11.06 16.09 10.565 16.579 9.946 16.936 9.326 17.294 8.609 17.541 7.797 17.678 6.983 17.811 6.127 17.879 5.231 17.879 4.545 17.879 3.863 17.858 3.192 17.823 2.519 17.783 1.758 17.713.906 17.609L.906 1.475.905 1.475zM5.139 8.016C5.514 8.016 5.86 7.985 6.181 7.916 6.505 7.85 6.78 7.729 7.023 7.56 7.261 7.386 7.45 7.154 7.58 6.864 7.715 6.574 7.786 6.203 7.786 5.755 7.786 5.324 7.705 4.966 7.55 4.691 7.39 4.415 7.189 4.2 6.945 4.042 6.698 3.885 6.421 3.781 6.116 3.728 5.809 3.678 5.507 3.651 5.206 3.651 4.792 3.651 4.437 3.674 4.153 3.719L4.153 8.018 5.139 8.018 5.139 8.016zM4.152 15.143C4.363 15.174 4.606 15.195 4.884 15.211 5.159 15.226 5.41 15.232 5.634 15.232 5.947 15.232 6.274 15.203 6.618 15.143 6.96 15.084 7.281 14.968 7.579 14.796 7.882 14.622 8.126 14.384 8.321 14.079 8.513 13.772 8.611 13.375 8.611 12.881 8.611 12.417 8.534 12.033 8.385 11.725 8.238 11.42 8.027 11.174 7.749 10.988 7.472 10.801 7.144 10.669 6.763 10.594 6.382 10.519 5.959 10.482 5.499 10.482L4.152 10.482 4.152 15.143 4.152 15.143zM19.747 9.99C19.747 9.63 19.689 9.34 19.571 9.116 19.45 8.889 19.283 8.716 19.075 8.587 18.868 8.463 18.609 8.376 18.304 8.33 17.995 8.287 17.656 8.264 17.283 8.264 16.475 8.264 15.617 8.422 14.707 8.733 14.498 8.347 14.342 7.981 14.239 7.636 14.131 7.294 14.079 6.88 14.079 6.404 14.738 6.182 15.393 6.018 16.05 5.913 16.707 5.808 17.32 5.755 17.888 5.755 19.442 5.755 20.655 6.131 21.532 6.877 22.404 7.622 22.84 8.816 22.84 10.462L22.84 17.183C22.322 17.346 21.681 17.504 20.935 17.654 20.191 17.802 19.348 17.88 18.405 17.88 17.644 17.88 16.944 17.812 16.31 17.679 15.674 17.542 15.131 17.319 14.677 17.003 14.219 16.691 13.868 16.286 13.62 15.793 13.373 15.3 13.249 14.698 13.249 13.98 13.249 13.262 13.405 12.662 13.711 12.179 14.018 11.69 14.414 11.3 14.899 11.01 15.386 10.72 15.927 10.511 16.526 10.384 17.121 10.256 17.719 10.194 18.317 10.194 18.748 10.194 19.227 10.218 19.749 10.26L19.749 9.99 19.747 9.99zM19.747 12.297C19.571 12.268 19.378 12.241 19.167 12.22 18.958 12.198 18.771 12.185 18.609 12.185 17.874 12.185 17.293 12.318 16.87 12.577 16.443 12.841 16.23 13.26 16.23 13.844 16.23 14.234 16.313 14.532 16.475 14.74 16.642 14.951 16.84 15.102 17.072 15.2 17.304 15.296 17.549 15.357 17.812 15.381 18.073 15.402 18.297 15.416 18.496 15.416 18.716 15.416 18.941 15.395 19.167 15.357 19.391 15.32 19.585 15.287 19.747 15.253L19.747 12.297zM24.567 6.023C25.104 5.934 25.634 5.888 26.157 5.888 26.679 5.888 27.21 5.934 27.746 6.023L27.746 12.164C27.746 12.773 27.794 13.279 27.891 13.675 27.989 14.073 28.14 14.384 28.341 14.616 28.542 14.847 28.793 15.012 29.089 15.107 29.392 15.206 29.74 15.252 30.146 15.252 30.695 15.252 31.159 15.202 31.535 15.099L31.535 6.024C32.072 5.935 32.598 5.889 33.104 5.889 33.626 5.889 34.157 5.935 34.693 6.024L34.693 17.159C34.214 17.325 33.584 17.483 32.801 17.64 32.015 17.797 31.199 17.878 30.347 17.878 29.584 17.878 28.85 17.816 28.15 17.697 27.447 17.577 26.832 17.324 26.301 16.934 25.773 16.544 25.35 15.981 25.035 15.231 24.722 14.485 24.566 13.49 24.566 12.251L24.566 6.023 24.567 6.023zM37.047 1.229C37.584 1.139 38.112 1.094 38.637 1.094 39.145 1.094 39.669 1.139 40.203 1.229L40.203 12.994C40.203 13.454 40.232 13.829 40.284 14.111 40.336 14.395 40.419 14.617 40.531 14.774 40.645 14.931 40.79 15.04 40.966 15.099 41.146 15.158 41.372 15.188 41.637 15.188 41.76 15.188 41.886 15.182 42.033 15.166 42.174 15.149 42.308 15.129 42.446 15.1 42.608 15.711 42.69 16.31 42.69 16.891L42.69 17.218C42.69 17.316 42.676 17.421 42.645 17.541 42.411 17.615 42.123 17.667 41.783 17.698 41.448 17.727 41.141 17.742 40.857 17.742 39.707 17.742 38.783 17.425 38.09 16.791 37.394 16.156 37.048 15.12 37.048 13.687L37.048 1.229 37.047 1.229zM46.479 12.79C46.537 13.686 46.852 14.336 47.42 14.742 47.988 15.142 48.736 15.344 49.66 15.344 50.17 15.344 50.686 15.294 51.216 15.198 51.749 15.1 52.25 14.962 52.731 14.784 52.895 15.084 53.036 15.442 53.154 15.859 53.276 16.278 53.342 16.725 53.355 17.204 52.192 17.652 50.881 17.878 49.412 17.878 48.338 17.878 47.414 17.727 46.645 17.428 45.876 17.13 45.25 16.715 44.766 16.185 44.282 15.655 43.92 15.025 43.692 14.29 43.456 13.561 43.342 12.761 43.342 11.894 43.342 11.042 43.46 10.243 43.698 9.495 43.938 8.749 44.295 8.1 44.765 7.547 45.235 6.996 45.818 6.557 46.514 6.237 47.206 5.914 48.016 5.754 48.945 5.754 49.751 5.754 50.464 5.898 51.094 6.182 51.722 6.465 52.255 6.853 52.698 7.344 53.137 7.837 53.469 8.426 53.695 9.104 53.917 9.786 54.027 10.515 54.027 11.291 54.027 11.572 54.017 11.854 53.996 12.132 53.975 12.405 53.948 12.63 53.917 12.791L46.479 12.791 46.479 12.79zM51.028 10.572C50.997 9.855 50.8 9.277 50.433 8.836 50.066 8.395 49.557 8.173 48.899 8.173 48.151 8.173 47.583 8.384 47.195 8.803 46.803 9.22 46.575 9.81 46.499 10.573L51.028 10.573 51.028 10.572zM56.719 8.442L55.219 8.442C55.174 8.247 55.14 8.044 55.115 7.829 55.094 7.611 55.084 7.406 55.084 7.211 55.084 6.81 55.126 6.411 55.219 6.023L59.834 6.023 59.834 17.608C59.295 17.697 58.771 17.741 58.265 17.741 57.77 17.741 57.258 17.697 56.719 17.608L56.719 8.442 56.719 8.442zM56.246 4.073C56.157 3.568 56.116 3.066 56.116 2.573 56.116 2.096 56.158 1.594 56.246 1.07 56.499 1.027 56.772.994 57.065.968 57.359.947 57.622.935 57.86.935 58.113.935 58.393.948 58.691.968 58.989.993 59.265 1.027 59.518 1.07 59.563 1.325 59.595 1.576 59.609 1.823 59.626 2.067 59.63 2.32 59.63 2.573 59.63 2.813 59.626 3.058 59.609 3.31 59.595 3.568 59.564 3.82 59.518 4.073 59.265 4.119 58.992 4.148 58.702 4.163 58.411 4.182 58.138 4.187 57.885 4.187 57.645 4.187 57.375 4.181 57.077 4.163 56.781 4.148 56.499 4.119 56.246 4.073zM62.836 8.442L61.381 8.442 61.267 7.994 65.457 2.64 65.969 2.64 65.969 6.024 68.684 6.024C68.729 6.249 68.757 6.449 68.771 6.628 68.788 6.811 68.794 6.997 68.794 7.191 68.794 7.398 68.788 7.601 68.771 7.795 68.757 7.991 68.729 8.205 68.684 8.443L65.97 8.443 65.97 12.994C65.97 13.454 66.007 13.829 66.084 14.111 66.156 14.395 66.268 14.621 66.409 14.785 66.552 14.95 66.728 15.06 66.935 15.12 67.142 15.182 67.389 15.212 67.673 15.212 67.899 15.212 68.118 15.191 68.334 15.153 68.551 15.116 68.742 15.085 68.906 15.053 69.01 15.337 69.086 15.631 69.13 15.941 69.175 16.244 69.2 16.517 69.2 16.757 69.2 16.92 69.192 17.058 69.185 17.171 69.179 17.283 69.168 17.391 69.15 17.494 68.466 17.66 67.755 17.741 67.026 17.741 65.664 17.741 64.626 17.424 63.909 16.79 63.192 16.155 62.836 15.119 62.836 13.686L62.836 8.442 62.836 8.442zM71.486 6.001C71.694 5.955 71.897 5.927 72.097 5.912 72.298 5.897 72.526 5.889 72.783 5.889 73.2 5.889 73.629 5.935 74.062 6.024 74.105 6.099 74.145 6.207 74.182 6.349 74.219 6.491 74.259 6.644 74.296 6.81 74.332 6.971 74.362 7.133 74.383 7.29 74.408 7.445 74.425 7.576 74.441 7.68 74.573 7.444 74.739 7.207 74.934 6.975 75.126 6.744 75.363 6.538 75.639 6.36 75.916 6.182 76.225 6.037 76.567 5.922 76.911 5.811 77.295 5.754 77.711 5.754 78.354 5.754 78.952 5.872 79.514 6.113 80.076 6.351 80.562 6.714 80.983 7.199 81.401 7.683 81.727 8.293 81.959 9.026 82.191 9.757 82.305 10.624 82.305 11.625 82.305 12.596 82.162 13.466 81.878 14.236 81.594 15.003 81.182 15.658 80.645 16.195 80.108 16.733 79.451 17.146 78.676 17.438 77.897 17.728 77.014 17.877 76.03 17.877 75.777 17.877 75.529 17.862 75.28 17.842 75.033 17.821 74.828 17.794 74.662 17.763L74.662 22.919C74.378 22.96 74.104 22.991 73.845 23.006 73.582 23.021 73.325 23.028 73.072 23.028 72.82 23.028 72.56 23.02 72.297 23.006 72.038 22.991 71.764 22.96 71.485 22.919L71.485 6.001 71.486 6.001zM74.664 15.143C75.07 15.263 75.534 15.323 76.052 15.323 76.981 15.323 77.692 15.025 78.182 14.428 78.678 13.828 78.922 12.925 78.922 11.715 78.922 11.25 78.884 10.821 78.808 10.428 78.736 10.032 78.607 9.69 78.427 9.408 78.251 9.126 78.019 8.898 77.745 8.732 77.472 8.57 77.129 8.488 76.724 8.488 76.355 8.488 76.036 8.56 75.772 8.699 75.513 8.845 75.302 9.035 75.136 9.283 74.969 9.53 74.852 9.818 74.778 10.145 74.703 10.475 74.664 10.825 74.664 11.198L74.664 15.143 74.664 15.143zM84.254 1.229C84.791 1.139 85.321 1.094 85.843 1.094 86.353 1.094 86.875 1.139 87.412 1.229L87.412 12.994C87.412 13.454 87.441 13.829 87.493 14.111 87.545 14.395 87.628 14.617 87.738 14.774 87.852 14.931 87.995 15.04 88.175 15.099 88.355 15.158 88.579 15.188 88.846 15.188 88.967 15.188 89.099 15.182 89.24 15.166 89.383 15.149 89.522 15.129 89.652 15.1 89.818 15.711 89.899 16.31 89.899 16.891L89.899 17.218C89.899 17.316 89.885 17.421 89.858 17.541 89.617 17.615 89.332 17.667 88.991 17.698 88.656 17.727 88.347 17.742 88.063 17.742 86.911 17.742 85.991 17.425 85.296 16.791 84.602 16.156 84.254 15.12 84.254 13.687L84.254 1.229 84.254 1.229zM97.385 9.99C97.385 9.63 97.323 9.34 97.204 9.116 97.086 8.889 96.92 8.716 96.709 8.587 96.502 8.463 96.245 8.376 95.94 8.33 95.633 8.287 95.294 8.264 94.919 8.264 94.113 8.264 93.255 8.422 92.341 8.733 92.134 8.347 91.976 7.981 91.873 7.636 91.769 7.294 91.718 6.88 91.718 6.404 92.375 6.182 93.03 6.018 93.689 5.913 94.346 5.808 94.955 5.755 95.527 5.755 97.077 5.755 98.294 6.131 99.166 6.877 100.039 7.622 100.478 8.816 100.478 10.462L100.478 17.183C99.956 17.346 99.317 17.504 98.574 17.654 97.825 17.802 96.984 17.88 96.043 17.88 95.278 17.88 94.582 17.812 93.948 17.679 93.312 17.542 92.767 17.319 92.311 17.003 91.857 16.691 91.502 16.286 91.258 15.793 91.011 15.3 90.887 14.698 90.887 13.98 90.887 13.262 91.042 12.662 91.347 12.179 91.652 11.69 92.048 11.3 92.535 11.01 93.02 10.72 93.565 10.511 94.16 10.384 94.755 10.256 95.354 10.194 95.951 10.194 96.387 10.194 96.865 10.218 97.388 10.26L97.388 9.99 97.385 9.99zM97.385 12.297C97.204 12.268 97.012 12.241 96.801 12.22 96.593 12.198 96.405 12.185 96.243 12.185 95.51 12.185 94.931 12.318 94.504 12.577 94.077 12.841 93.868 13.26 93.868 13.844 93.868 14.234 93.947 14.532 94.113 14.74 94.277 14.951 94.478 15.102 94.71 15.2 94.938 15.296 95.187 15.357 95.446 15.381 95.707 15.402 95.935 15.416 96.132 15.416 96.354 15.416 96.58 15.395 96.801 15.357 97.025 15.32 97.224 15.287 97.385 15.253L97.385 12.297zM103.3 6.023C103.511 5.98 103.718 5.947 103.926 5.921 104.135 5.899 104.369 5.888 104.622 5.888 104.874 5.888 105.101 5.899 105.293 5.921 105.488 5.946 105.689 5.98 105.9 6.023 105.943 6.098 105.983 6.206 106.02 6.348 106.06 6.49 106.093 6.639 106.124 6.796 106.153 6.953 106.18 7.105 106.201 7.254 106.222 7.405 106.243 7.531 106.257 7.635 106.406 7.413 106.585 7.19 106.796 6.964 107.005 6.737 107.248 6.537 107.524 6.359 107.801 6.181 108.11 6.036 108.452 5.921 108.798 5.81 109.18 5.753 109.594 5.753 110.91 5.753 111.9 6.112 112.566 6.829 113.231 7.546 113.563 8.674 113.563 10.215L113.563 17.608C113.022 17.697 112.494 17.741 111.974 17.741 111.448 17.741 110.919 17.697 110.382 17.608L110.382 11.063C110.382 10.257 110.256 9.635 110.011 9.205 109.764 8.771 109.335 8.554 108.722 8.554 108.469 8.554 108.206 8.594 107.941 8.668 107.67 8.74 107.427 8.89 107.209 9.104 106.996 9.322 106.817 9.624 106.683 10.011 106.549 10.399 106.482 10.908 106.482 11.534L106.482 17.608C105.945 17.697 105.417 17.741 104.89 17.741 104.37 17.741 103.837 17.697 103.301 17.608L103.301 6.023 103.3 6.023zM115.357 6.023C115.894 5.934 116.422 5.888 116.944 5.888 117.468 5.888 117.997 5.934 118.533 6.023L118.533 12.164C118.533 12.773 118.583 13.279 118.68 13.675 118.775 14.073 118.929 14.384 119.13 14.616 119.331 14.847 119.584 15.012 119.878 15.107 120.179 15.206 120.528 15.252 120.933 15.252 121.485 15.252 121.949 15.202 122.322 15.099L122.322 6.024C122.859 5.935 123.383 5.889 123.89 5.889 124.412 5.889 124.943 5.935 125.48 6.024L125.48 17.159C125.001 17.325 124.372 17.483 123.59 17.64 122.804 17.797 121.986 17.878 121.134 17.878 120.373 17.878 119.642 17.816 118.939 17.697 118.236 17.577 117.619 17.324 117.09 16.934 116.56 16.544 116.137 15.981 115.822 15.231 115.511 14.485 115.356 13.49 115.356 12.251L115.356 6.023 115.357 6.023zM127.926 6.023C128.133 5.98 128.341 5.947 128.552 5.921 128.759 5.899 128.991 5.888 129.244 5.888 129.501 5.888 129.723 5.899 129.92 5.921 130.114 5.946 130.314 5.98 130.523 6.023 130.567 6.098 130.61 6.206 130.647 6.348 130.685 6.49 130.715 6.639 130.747 6.796 130.779 6.953 130.804 7.105 130.828 7.254 130.849 7.405 130.865 7.531 130.882 7.635 131.031 7.413 131.212 7.19 131.419 6.964 131.628 6.737 131.873 6.537 132.15 6.359 132.423 6.181 132.734 6.036 133.079 5.921 133.421 5.81 133.802 5.753 134.221 5.753 135.533 5.753 136.524 6.112 137.189 6.829 137.856 7.546 138.186 8.674 138.186 10.215L138.186 17.608C137.649 17.697 137.121 17.741 136.596 17.741 136.074 17.741 135.543 17.697 135.004 17.608L135.004 11.063C135.004 10.257 134.882 9.635 134.638 9.205 134.387 8.771 133.962 8.554 133.349 8.554 133.091 8.554 132.828 8.594 132.563 8.668 132.296 8.74 132.053 8.89 131.835 9.104 131.618 9.322 131.439 9.624 131.309 10.011 131.174 10.399 131.109 10.908 131.109 11.534L131.109 17.608C130.568 17.697 130.04 17.741 129.517 17.741 128.993 17.741 128.464 17.697 127.927 17.608L127.927 6.023 127.926 6.023zM147.015 15.681C148.372 15.71 149.375 16.011 150.016 16.587 150.657 17.163 150.98 17.982 150.98 19.04 150.98 19.668 150.816 20.238 150.489 20.756 150.159 21.271 149.712 21.708 149.141 22.067 148.576 22.425 147.9 22.701 147.124 22.896 146.35 23.09 145.515 23.186 144.619 23.186 143.722 23.186 142.957 23.115 142.333 22.974 141.703 22.833 141.189 22.634 140.795 22.381 140.401 22.126 140.118 21.812 139.943 21.437 139.773 21.066 139.686 20.656 139.686 20.206 139.686 19.534 139.846 18.983 140.169 18.548 140.485 18.117 140.919 17.736 141.455 17.408 141.113 17.197 140.84 16.94 140.639 16.633 140.439 16.326 140.337 15.937 140.337 15.456 140.337 14.889 140.454 14.429 140.695 14.067 140.933 13.711 141.283 13.367 141.746 13.04 141.224 12.665 140.819 12.207 140.537 11.672 140.251 11.133 140.112 10.536 140.112 9.877 140.112 9.295 140.222 8.754 140.448 8.253 140.67 7.755 141 7.322 141.42 6.955 141.848 6.586 142.367 6.301 142.979 6.093 143.592 5.882 144.279 5.779 145.04 5.779 145.788 5.779 146.474 5.895 147.103 6.127 147.731 6.356 148.253 6.653 148.672 7.01 148.951 6.637 149.306 6.356 149.725 6.171 150.143 5.984 150.707 5.891 151.424 5.891 151.455 6.086 151.484 6.277 151.505 6.463 151.527 6.65 151.54 6.847 151.54 7.056 151.54 7.296 151.531 7.535 151.515 7.773 151.5 8.013 151.47 8.258 151.424 8.513L149.611 8.513C149.688 8.664 149.757 8.842 149.814 9.049 149.875 9.259 149.905 9.534 149.905 9.878 149.905 10.463 149.794 11.004 149.58 11.503 149.362 12.005 149.046 12.434 148.627 12.792 148.208 13.15 147.696 13.435 147.089 13.644 146.488 13.854 145.803 13.957 145.04 13.957 144.399 13.957 143.825 13.891 143.315 13.756 143.062 13.919 142.903 14.096 142.844 14.282 142.786 14.47 142.755 14.644 142.755 14.808 142.755 15.046 142.834 15.241 142.993 15.39 143.148 15.539 143.468 15.622 143.942 15.637L147.015 15.681zM144.145 18.009C143.815 17.996 143.546 18.033 143.327 18.124 143.113 18.214 142.939 18.327 142.814 18.471 142.686 18.614 142.597 18.767 142.545 18.942 142.493 19.112 142.464 19.282 142.464 19.445 142.464 20.013 142.68 20.396 143.105 20.599 143.532 20.8 144.103 20.902 144.819 20.902 145.757 20.902 146.52 20.753 147.09 20.455 147.671 20.154 147.956 19.752 147.956 19.244 147.956 19.096 147.935 18.952 147.898 18.817 147.863 18.682 147.791 18.56 147.687 18.448 147.583 18.337 147.438 18.241 147.249 18.171 147.062 18.092 146.813 18.055 146.499 18.055L144.145 18.009zM145.064 11.895C145.692 11.895 146.142 11.715 146.418 11.357 146.695 10.998 146.834 10.504 146.834 9.877 146.834 9.251 146.695 8.754 146.418 8.39 146.143 8.023 145.692 7.838 145.064 7.838 144.419 7.838 143.96 8.023 143.675 8.39 143.392 8.754 143.25 9.251 143.25 9.877 143.25 10.505 143.392 10.998 143.675 11.357 143.96 11.715 144.42 11.895 145.064 11.895z"/>
    </g>
    <path fill="url(#a)" d="M21.734,77.03 L21.734,35.231 L33.178,35.231 C37.895,35.231 41.19,35.383 43.063,35.688 C44.936,35.993 46.546,36.515 47.902,37.256 C49.438,38.112 50.615,39.258 51.423,40.695 C52.229,42.128 52.635,43.788 52.635,45.671 C52.635,48.049 52.028,49.936 50.824,51.335 C49.616,52.731 47.693,53.792 45.054,54.514 C48.017,54.742 50.338,55.786 52.011,57.644 C53.683,59.499 54.52,61.98 54.52,65.085 C54.52,67.315 54.05,69.278 53.107,70.971 C52.166,72.667 50.819,73.981 49.07,74.915 C47.644,75.677 45.885,76.22 43.794,76.542 C41.699,76.867 38.275,77.03 33.521,77.03 L21.734,77.03 L21.734,77.03 Z M32.299,51.913 L34.574,51.913 C37.382,51.913 39.307,51.605 40.352,50.989 C41.394,50.371 41.917,49.303 41.917,47.785 C41.917,46.208 41.43,45.103 40.45,44.466 C39.476,43.829 37.574,43.51 34.747,43.51 L32.299,43.51 L32.299,51.913 L32.299,51.913 Z M32.299,68.506 L36.28,68.506 C38.989,68.506 40.904,68.167 42.025,67.488 C43.154,66.812 43.716,65.681 43.716,64.094 C43.716,62.341 43.2,61.113 42.17,60.416 C41.142,59.721 39.233,59.371 36.454,59.371 L32.299,59.371 L32.299,68.506 Z"/>
    <path fill="url(#b)" d="M162.667,91.75 C162.667,94.799 160.194,97.273 157.145,97.273 L63.787,97.273 C60.737,97.273 58.264,94.799 58.264,91.75 L58.264,5.941 C58.264,2.89 60.737,0.418 63.787,0.418 L157.144,0.418 C160.194,0.418 162.666,2.89 162.666,5.941 L162.666,91.75 L162.667,91.75 Z"/>
    <path fill="#FFFFFF" d="M108.261 56.236C108.261 59.244 107.71 62.058 106.605 64.685 105.501 67.311 103.894 69.659 101.782 71.733 99.652 73.79 97.215 75.372 94.475 76.487 91.738 77.597 88.894 78.155 85.945 78.155 82.957 78.155 80.099 77.597 77.371 76.487 74.638 75.372 72.236 73.79 70.165 71.733 68.012 69.659 66.381 67.3 65.268 64.656 64.157 62.011 63.6 59.206 63.6 56.236 63.6 53.25 64.158 50.438 65.268 47.803 66.381 45.168 68.012 42.814 70.165 40.739 72.235 38.682 74.637 37.1 77.371 35.985 80.099 34.873 82.956 34.316 85.945 34.316 88.913 34.316 91.773 34.874 94.521 35.985 97.267 37.1 99.691 38.682 101.782 40.739 103.873 42.794 105.477 45.144 106.592 47.789 107.703 50.434 108.261 53.25 108.261 56.236zM85.945 68.506C89.101 68.506 91.713 67.346 93.78 65.024 95.84 62.703 96.872 59.774 96.872 56.236 96.872 52.736 95.826 49.817 93.734 47.478 91.643 45.137 89.046 43.968 85.944 43.968 82.786 43.968 80.174 45.134 78.111 47.463 76.047 49.793 75.017 52.716 75.017 56.235 75.017 59.811 76.035 62.751 78.068 65.053 80.107 67.354 82.731 68.506 85.945 68.506zM114.583 77.03L114.583 35.231 126.027 35.231C130.742 35.231 134.039 35.383 135.908 35.688 137.786 35.993 139.396 36.515 140.745 37.256 142.287 38.112 143.46 39.258 144.268 40.695 145.079 42.128 145.478 43.788 145.478 45.671 145.478 48.049 144.877 49.936 143.671 51.335 142.467 52.731 140.541 53.792 137.9 54.514 140.868 54.742 143.184 55.786 144.859 57.644 146.531 59.499 147.371 61.98 147.371 65.085 147.371 67.315 146.898 69.278 145.957 70.971 145.017 72.667 143.67 73.981 141.921 74.915 140.495 75.677 138.732 76.22 136.64 76.542 134.549 76.867 131.123 77.03 126.369 77.03L114.583 77.03 114.583 77.03zM125.145 51.913L127.422 51.913C130.23 51.913 132.155 51.605 133.202 50.989 134.244 50.371 134.763 49.303 134.763 47.785 134.763 46.208 134.278 45.103 133.3 44.466 132.321 43.829 130.421 43.51 127.592 43.51L125.145 43.51 125.145 51.913zM125.145 68.506L129.13 68.506C131.834 68.506 133.749 68.167 134.876 67.488 136 66.812 136.564 65.681 136.564 64.094 136.564 62.341 136.047 61.113 135.016 60.416 133.988 59.721 132.083 59.371 129.3 59.371L125.145 59.371 125.145 68.506z"/>
    <polygon fill="url(#c)" points="70.45 95.811 91.387 95.811 63.468 123.729"/>
    <path stroke="#A7A8AA" stroke-width=".425" d="M185.905,134.319 L185.905,214.725"/>
    <g fill="#A7A8AA" transform="translate(209 154)">
      <path d="M3.806 3.314L3.806 3.314C1.951 4.896 1.048 6.918 1.048 9.495 1.048 10.913 1.27 12.104 1.704 13.037 2.137 13.969 2.736 14.783 3.487 15.458 4.249 16.138 5.143 16.725 6.142 17.201 6.143 17.201 9.407 18.575 9.407 18.575 11.04 19.208 12.415 19.807 13.499 20.358 14.605 20.92 15.492 21.52 16.135 22.143 16.791 22.782 17.261 23.497 17.531 24.269 17.794 25.032 17.926 25.939 17.926 26.966 17.926 28.048 17.732 29.064 17.347 29.984 16.957 30.919 16.36 31.74 15.572 32.425 14.787 33.103 13.787 33.648 12.598 34.045 11.416 34.439 9.993 34.638 8.367 34.638L5.679 34.486 3.587 34.132 1.88 33.676C1.878 33.675 1.261 33.483.84 33.352.694 33.77.438 34.506.438 34.506.438 34.506.281 35.238.182 35.695.774 35.853 3.393 36.553 3.393 36.553 4.645 36.824 6.251 36.963 8.169 36.963 10.136 36.963 11.933 36.727 13.51 36.261 15.07 35.801 16.406 35.126 17.483 34.255 18.553 33.389 19.388 32.305 19.966 31.034 20.552 29.752 20.85 28.266 20.85 26.618 20.85 25.171 20.613 23.92 20.144 22.899 19.672 21.881 19.02 20.983 18.205 20.23 17.378 19.465 16.368 18.787 15.205 18.214 15.204 18.213 11.334 16.488 11.334 16.488 11.341 16.49 8.437 15.262 8.437 15.262 7.496 14.824 6.714 14.363 6.048 13.85 5.355 13.314 4.807 12.685 4.421 11.978 4.024 11.257 3.822 10.404 3.822 9.443 3.822 7.605 4.468 6.065 5.741 4.864 7.007 3.667 9.093 3.06 11.939 3.06 13.186 3.06 14.456 3.17 15.713 3.389 16.798 3.577 17.658 3.783 18.4 4.004 18.517 3.599 18.7 2.968 18.7 2.968 18.7 2.968 18.821 2.295 18.9 1.859 18.522 1.759 17.969 1.614 17.969 1.614 17.968 1.614 16.22 1.275 16.22 1.275L14.161 1.03 11.99.931C8.408.934 5.654 1.735 3.806 3.314zM48.596 1.456L48.596 1.456C48.596 1.456 48.401 1.474 48.205 1.492L48.205 16.719 29.782 16.719 29.782 1.492C29.585 1.474 29.387 1.456 29.387 1.456 29.386 1.456 28.517 1.431 28.517 1.431L27.645 1.456C27.645 1.456 27.424 1.476 27.207 1.494L27.207 36.41C27.389 36.427 27.57 36.444 27.57 36.444 27.573 36.444 28.516 36.468 28.516 36.468L29.386 36.444C29.387 36.444 29.585 36.426 29.781 36.408L29.781 18.997 48.204 18.997 48.204 36.408C48.398 36.427 48.592 36.444 48.592 36.444 48.595 36.444 49.465 36.468 49.465 36.468L50.412 36.444C50.413 36.444 50.597 36.426 50.778 36.41L50.778 1.494C50.559 1.475 50.336 1.456 50.336 1.456L49.465 1.431 48.596 1.456z"/>
    </g>
    <path stroke="#A7A8AA" stroke-width=".425" d="M190.933 134.319L180.882 134.319M190.933 214.725L180.882 214.725"/>
  </g>
</svg>
