<svg xmlns="http://www.w3.org/2000/svg" width="79" height="102" viewBox="0 0 79 102" xmlns:xlink="http://www.w3.org/1999/xlink">
  <defs>
    <polyline id="a" points=".305 .679 18.312 .447 18.312 30.191 .305 30.191 .305 .679"/>
    <polyline id="c" points=".305 .679 18.312 .447 18.312 30.191 .305 30.191 .305 .679"/>
    <polyline id="e" points=".305 .679 18.312 .447 18.312 30.191 .305 30.191 .305 .679"/>
  </defs>
  <g fill="none" fill-rule="evenodd" transform="translate(1 1)">
    <path fill="#D9222A" d="M76.9447368,64.8526316 C76.9447368,83.9731579 59.7678947,99.4736842 38.7357895,99.4736842 C17.7031579,99.4736842 0.526315789,83.9731579 0.526315789,64.8526316 L0.526315789,0.626842105 L76.9584211,0.626842105 L76.9447368,64.8526316"/>
    <path fill="#1A1918" d="M77.2205263,64.8526316 L77.2336842,0.626842105 L77.2336842,0.351578947 L0.251052632,0.351578947 L0.251052632,64.8526316 C0.251052632,84.0942105 17.5157895,99.7494737 38.7357895,99.7494737 C48.9842105,99.7494737 58.6357895,96.1226316 65.9115789,89.5373684 C73.2042105,82.9384211 77.2205263,74.1721053 77.2205263,64.8526316 L77.2205263,64.8526316 L77.2205263,64.8526316 Z M76.6694737,64.8526316 C76.6694737,74.0142105 72.7178947,82.6357895 65.5426316,89.1294737 C58.3673684,95.6226316 48.8478947,99.1989474 38.7357895,99.1989474 C17.8189474,99.1989474 0.801578947,83.7905263 0.801578947,64.8526316 L0.801578947,0.626842105 L0.526315789,0.902105263 L76.9584211,0.902105263 L76.6826316,0.626842105 L76.6694737,64.8526316 L76.6694737,64.8526316 Z"/>
    <path fill="#D9222A" d="M76.9447368,64.8526316 C76.9447368,83.9731579 59.7678947,99.4736842 38.7357895,99.4736842 C17.7031579,99.4736842 0.526315789,83.9731579 0.526315789,64.8526316 L0.526315789,0.626842105 L76.9584211,0.626842105 L76.9447368,64.8526316"/>
    <path stroke="#1A1918" stroke-width="2" d="M76.9447368,64.8526316 C76.9447368,83.9731579 59.7678947,99.4736842 38.7357895,99.4736842 C17.7031579,99.4736842 0.526315789,83.9731579 0.526315789,64.8526316 L0.526315789,0.626842105 L76.9584211,0.626842105 L76.9447368,64.8526316 L76.9447368,64.8526316 Z"/>
    <polygon fill="#FFFFFF" points="11.019 76.033 66.034 76.033 66.034 79.775 11.019 79.775"/>
    <path fill="#FFFFFF" d="M38.7821053,4.44947368 L38.2842105,4.44947368 L38.2842105,5.78368421 L36.6763158,5.78368421 L36.6763158,6.82684211 L38.2842105,6.82684211 L38.2842105,9.26947368 C36.2847368,9.62578947 36.4152632,11.8952632 36.4152632,11.8952632 L38.7821053,11.7647368 L41.1494737,11.8952632 C41.1494737,11.8952632 41.28,9.62578947 39.2805263,9.26947368 L39.2805263,6.82684211 L40.8878947,6.82684211 L40.8878947,5.78368421 L39.2805263,5.78368421 L39.2805263,4.44947368 L38.7821053,4.44947368"/>
    <path fill="#1A1918" d="M39.1157895,4.44947368 L39.1157895,5.94894737 L40.8878947,5.94894737 L40.7236842,5.78368421 L40.7236842,6.82684211 L40.8878947,6.66157895 L39.1157895,6.66157895 L39.1157895,9.40789474 L39.2521053,9.43210526 C41.0857895,9.75894737 40.9889474,11.7989474 40.9847368,11.8857895 L41.1584211,11.73 L38.7915789,11.5994737 L38.7821053,11.5989474 L38.7731579,11.5994737 L36.4057895,11.73 L36.58,11.8852632 C36.5757895,11.7989474 36.4842105,9.75789474 38.3131579,9.43210526 L38.4494737,9.40789474 L38.4494737,6.66157895 L36.6763158,6.66157895 L36.8410526,6.82684211 L36.8410526,5.78368421 L36.6763158,5.94894737 L38.4494737,5.94894737 L38.4494737,4.44947368 L38.2842105,4.61473684 L39.2805263,4.61473684 L39.1157895,4.44947368 L39.1157895,4.44947368 Z M38.7821053,4.28421053 L38.1189474,4.28421053 L38.1189474,5.78368421 L38.2842105,5.61842105 L36.5110526,5.61842105 L36.5110526,6.99210526 L38.2842105,6.99210526 L38.1189474,6.82684211 L38.1189474,9.26947368 L38.2552632,9.10684211 C36.1363158,9.48473684 36.2489474,11.88 36.2505263,11.9047368 L36.26,12.0689474 L36.4242105,12.06 L38.7915789,11.9294737 L38.7731579,11.9294737 L41.14,12.06 L41.3047368,12.0689474 L41.3136842,11.9042105 C41.3157895,11.88 41.4278947,9.48473684 39.31,9.10684211 L39.4457895,9.26947368 L39.4457895,6.82684211 L39.2805263,6.99210526 L41.0536842,6.99210526 L41.0536842,5.61842105 L39.2805263,5.61842105 L39.4457895,5.78368421 L39.4457895,4.28421053 L38.7821053,4.28421053 L38.7821053,4.28421053 Z"/>
    <polyline fill="#FFFFFF" points="20.195 13.696 17.953 13.696 17.953 19.318 18.815 19.627 30.474 19.627 31.189 19.318 31.189 13.696 20.195 13.696"/>
    <path fill="#1A1918" d="M21.8321053,13.8615789 L31.1894737,13.8615789 L31.0247368,13.6963158 L31.0247368,19.3178947 L31.1242105,19.1663158 L30.4084211,19.4752632 L30.4736842,19.4615789 L18.8147368,19.4615789 L18.8705263,19.4710526 L18.0084211,19.1621053 L18.1178947,19.3178947 L18.1178947,13.6963158 L17.9526316,13.8615789 L21.8321053,13.8615789 L21.8321053,13.8615789 Z M20.1952632,13.5310526 L17.7873684,13.5310526 L17.7873684,19.4342105 L17.8968421,19.4731579 L18.7589474,19.7826316 L18.7857895,19.7921053 L30.5078947,19.7921053 L30.5394737,19.7784211 L31.2552632,19.4694737 L31.3552632,19.4263158 L31.3552632,13.5310526 L20.1952632,13.5310526 L20.1952632,13.5310526 Z"/>
    <polyline fill="#FFFFFF" points="48.508 13.696 46.374 13.696 46.374 19.318 47.091 19.627 58.75 19.627 59.613 19.318 59.613 13.696 48.508 13.696"/>
    <path fill="#1A1918" d="M49.9742105,13.8615789 L59.6126316,13.8615789 L59.4468421,13.6963158 L59.4468421,19.3178947 L59.5557895,19.1621053 L58.6947368,19.4710526 L58.75,19.4615789 L47.0910526,19.4615789 L47.1557895,19.4752632 L46.44,19.1663158 L46.54,19.3178947 L46.54,13.6963158 L46.3742105,13.8615789 L49.9742105,13.8615789 L49.9742105,13.8615789 Z M48.5084211,13.5310526 L46.21,13.5310526 L46.21,19.4263158 L46.3094737,19.4694737 L47.0252632,19.7784211 L47.0568421,19.7921053 L58.7789474,19.7921053 L58.8052632,19.7826316 L59.6678947,19.4731579 L59.7768421,19.4342105 L59.7768421,13.5310526 L48.5084211,13.5310526 L48.5084211,13.5310526 Z"/>
    <polygon fill="#FFFFFF" points="18.815 19.625 30.457 19.625 30.457 44.355 18.815 44.355"/>
    <path fill="#1A1918" d="M18.8147368,44.5210526 L30.6226316,44.5210526 L30.6226316,19.4605263 L18.6494737,19.4605263 L18.6494737,44.5210526 L18.8147368,44.5210526 L18.8147368,44.5210526 Z M18.8147368,19.7905263 L30.4573684,19.7905263 L30.2921053,19.6252632 L30.2921053,44.3552632 L30.4573684,44.1905263 L18.8147368,44.1905263 L18.98,44.3552632 L18.98,19.6252632 L18.8147368,19.7905263 L18.8147368,19.7905263 Z"/>
    <polygon fill="#FFFFFF" points="47.107 19.625 58.75 19.625 58.75 44.355 47.107 44.355"/>
    <path fill="#1A1918" d="M58.75,44.1905263 L47.1073684,44.1905263 L47.2726316,44.3552632 L47.2726316,19.6252632 L47.1073684,19.7905263 L58.75,19.7905263 L58.5847368,19.6252632 L58.5847368,44.3552632 L58.75,44.1905263 L58.75,44.1905263 Z M58.75,19.4605263 L46.9426316,19.4605263 L46.9426316,44.5210526 L58.9152632,44.5210526 L58.9152632,19.4605263 L58.75,19.4605263 L58.75,19.4605263 Z"/>
    <polyline fill="#FFFFFF" points="27.843 10.345 25.73 10.345 24.674 12.175 23.618 10.345 21.505 10.345 22.561 8.516 21.505 6.686 23.618 6.686 24.674 4.856 25.73 6.686 27.843 6.686 26.787 8.516 27.843 10.345"/>
    <path fill="#1A1918" d="M26.93,8.59842105 L27.9863158,6.76842105 L28.1294737,6.52105263 L25.73,6.52105263 L25.8736842,6.60368421 L24.8173684,4.77368421 L24.6736842,4.52578947 L24.5310526,4.77368421 L23.4747368,6.60368421 L23.6178947,6.52105263 L21.2189474,6.52105263 L22.4178947,8.59842105 L22.4178947,8.43315789 L21.3615789,10.2626316 L21.2189474,10.5105263 L21.5047368,10.5105263 L23.6178947,10.5110526 L23.4747368,10.4284211 L24.6736842,12.5057895 L24.8173684,12.2578947 L25.8736842,10.4284211 L25.73,10.5110526 L27.8431579,10.5105263 L28.1294737,10.5105263 L27.9863158,10.2626316 L26.93,8.43315789 L26.93,8.59842105 L26.93,8.59842105 Z M27.8431579,10.1805263 L25.6352632,10.1805263 L24.5310526,12.0926316 L24.8173684,12.0926316 L23.7605263,10.2631579 L23.7131579,10.1805263 L21.5047368,10.1805263 L21.6478947,10.4284211 L22.7042105,8.59842105 L22.7515789,8.51578947 L22.7042105,8.43315789 L21.6478947,6.60368421 L21.5047368,6.85157895 L23.7131579,6.85157895 L23.7605263,6.76842105 L24.8173684,4.93894737 L24.5310526,4.93894737 L25.6352632,6.85157895 L27.8431579,6.85157895 L27.7,6.60368421 L26.6442105,8.43315789 L26.5963158,8.51578947 L26.6442105,8.59842105 L27.7,10.4284211 L27.8431579,10.1805263 L27.8431579,10.1805263 Z"/>
    <polyline fill="#FFFFFF" points="49.722 10.345 51.834 10.345 52.891 12.175 53.947 10.345 56.06 10.345 55.003 8.516 56.06 6.686 53.947 6.686 52.891 4.856 51.834 6.686 49.722 6.686 50.777 8.516 49.722 10.345"/>
    <path fill="#1A1918" d="M50.9210526,8.43315789 L49.8642105,6.60368421 L49.7215789,6.85157895 L51.9294737,6.85157895 L51.9768421,6.76842105 L53.0336842,4.93894737 L52.7478947,4.93894737 L53.8047368,6.76842105 L53.8515789,6.85157895 L56.06,6.85157895 L55.9168421,6.60368421 L54.86,8.43315789 L54.8131579,8.51578947 L54.86,8.59842105 L55.9168421,10.4284211 L56.06,10.1805263 L53.8515789,10.1805263 L53.8047368,10.2631579 L52.7478947,12.0926316 L53.0336842,12.0926316 L51.9768421,10.2631579 L51.9294737,10.1805263 L49.7215789,10.1805263 L49.8642105,10.4284211 L50.9210526,8.59842105 L50.9684211,8.51578947 L50.9210526,8.43315789 L50.9210526,8.43315789 Z M49.7215789,10.5105263 L51.8336842,10.5110526 L51.6910526,10.4284211 L52.7478947,12.2578947 L52.8905263,12.5057895 L53.0336842,12.2578947 L54.09,10.4284211 L53.9473684,10.5110526 L56.06,10.5105263 L56.3457895,10.5105263 L55.1457895,8.43315789 L55.1457895,8.59842105 L56.3457895,6.52105263 L53.9473684,6.52105263 L54.09,6.60368421 L53.0336842,4.77368421 L52.8905263,4.52631579 L52.7478947,4.77368421 L51.6910526,6.60315789 L51.8336842,6.52105263 L49.4357895,6.52105263 L50.6342105,8.59842105 L50.6342105,8.43315789 L49.4357895,10.5105263 L49.7215789,10.5105263 L49.7215789,10.5105263 Z"/>
    <path fill="#FFFFFF" d="M38.7821053,11.3721053 C35.9715789,11.3721053 33.1231579,13.8342105 33.1231579,16.9068421 L38.7821053,16.9068421 L44.4415789,16.9068421 C44.4415789,13.8342105 41.5931579,11.3721053 38.7821053,11.3721053"/>
    <path fill="#1A1918" d="M44.4415789,16.7421053 L33.1231579,16.7421053 L33.2884211,16.9068421 C33.2884211,13.8336842 36.1884211,11.5378947 38.7821053,11.5378947 C41.3752632,11.5378947 44.2763158,13.8336842 44.2763158,16.9068421 L44.4415789,16.7421053 L44.4415789,16.7421053 Z M38.7821053,11.2073684 C36.0326316,11.2073684 32.9578947,13.6447368 32.9578947,16.9068421 L32.9578947,17.0726316 L44.6063158,17.0726316 L44.6063158,16.9068421 C44.6063158,13.6447368 41.5315789,11.2073684 38.7821053,11.2073684 L38.7821053,11.2073684 L38.7821053,11.2073684 Z"/>
    <polyline fill="#FFFFFF" points="38.782 16.907 32.278 16.907 32.278 19.406 32.919 19.625 44.645 19.625 45.287 19.406 45.287 16.907 38.782 16.907"/>
    <path fill="#1A1918" d="M45.1210526,16.9068421 L45.1210526,19.4063158 L45.2331579,19.25 L44.5921053,19.4689474 L44.6452632,19.4605263 L32.9189474,19.4605263 L32.9726316,19.4689474 L32.3315789,19.25 L32.4431579,19.4063158 L32.4431579,16.9068421 L32.2784211,17.0726316 L45.2868421,17.0726316 L45.1210526,16.9068421 L45.1210526,16.9068421 Z M38.7821053,16.7421053 L32.1126316,16.7421053 L32.1126316,19.5247368 L32.2247368,19.5626316 L32.8657895,19.7815789 L32.8921053,19.7905263 L44.6731579,19.7905263 L44.6989474,19.7815789 L45.34,19.5626316 L45.4510526,19.5247368 L45.4510526,16.7421053 L38.7821053,16.7421053 L38.7821053,16.7421053 Z"/>
    <polyline fill="#FFFFFF" points="38.782 19.625 33.031 19.625 33.031 44.018 44.533 44.018 44.533 19.625 38.782 19.625"/>
    <path fill="#1A1918" d="M44.3678947,19.6252632 L44.3678947,44.0184211 L44.5331579,43.8526316 L33.0310526,43.8526316 L33.1963158,44.0184211 L33.1963158,19.6252632 L33.0310526,19.7905263 L44.5331579,19.7905263 L44.3678947,19.6252632 L44.3678947,19.6252632 Z M38.7821053,19.4605263 L32.8663158,19.4605263 L32.8663158,44.1831579 L44.6978947,44.1831579 L44.6978947,19.4605263 L38.7821053,19.4605263 L38.7821053,19.4605263 Z"/>
    <polyline fill="#FFFFFF" points="47.611 43.473 47.611 40.124 43.933 40.124 43.933 43.473 40.585 43.473 40.585 40.124 36.979 40.124 36.979 43.473 33.632 43.473 33.632 40.124 29.954 40.124 29.954 43.473 26.886 43.473 26.886 40.124 23.326 40.124 23.326 43.473 20.284 43.473 20.284 40.124 16.116 40.124 16.116 46.47 17.125 46.711 60.44 46.711 60.936 46.47 60.936 40.124 57.281 40.124 57.281 43.473 54.238 43.473 54.238 40.124 50.677 40.124"/>
    <path fill="#1A1918" d="M23.3263158,40.2894737 L60.9363158,40.2894737 L60.7710526,40.1242105 L60.7710526,46.47 L60.8636842,46.3215789 L60.3678947,46.5626316 L60.44,46.5463158 L17.1247368,46.5463158 L17.1626316,46.5505263 L16.1542105,46.3089474 L16.2810526,46.47 L16.2810526,40.1242105 L16.1157895,40.2894737 L23.3263158,40.2894737 L23.3263158,40.2894737 Z M20.2836842,39.9589474 L15.9505263,39.9589474 L15.9505263,46.6 L16.0773684,46.6305263 L17.0857895,46.8721053 L17.1052632,46.8763158 L60.4789474,46.8763158 L60.5131579,46.8594737 L61.0084211,46.6184211 L61.1010526,46.5731579 L61.1010526,39.9589474 L20.2836842,39.9589474 L20.2836842,39.9589474 Z"/>
    <path fill="#FFFFFF" d="M44.7573684,76.0331579 L66.0331579,76.0331579 C66.0331579,76.0331579 64.1942105,72.8184211 62.1421053,63.5189474 C60.2510526,54.9536842 60.9363158,46.47 60.9363158,46.47 L16.1157895,46.47 C16.1157895,46.47 16.8010526,54.9536842 14.9110526,63.5189474 C12.8584211,72.8184211 11.0189474,76.0331579 11.0189474,76.0331579 L32.8442105,76.0331579"/>
    <path fill="#1A1918" d="M44.7573684,76.1710526 L66.2705263,76.1710526 L66.1521053,75.9647368 C66.1336842,75.9331579 64.2978947,72.6510526 62.2757895,63.4894737 C60.4121053,55.0436842 61.0668421,46.5657895 61.0731579,46.4810526 L61.0857895,46.3321053 L15.9663158,46.3321053 L15.9784211,46.4810526 C15.9857895,46.5657895 16.6405263,55.0436842 14.7763158,63.4894737 C12.7542105,72.6510526 10.9178947,75.9331579 10.8994737,75.9647368 L10.89,75.9810526 L10.8857895,75.9994737 L10.8426316,76.1710526 L32.8442105,76.1710526 L32.8442105,75.8952632 L11.0189474,75.8952632 L11.1389474,76.1015789 C11.1573684,76.0689474 13.0115789,72.7615789 15.0447368,63.5484211 C16.92,55.0536842 16.2615789,46.5268421 16.2521053,46.4526316 L16.1157895,46.6073684 L60.9363158,46.6073684 L60.8,46.4589474 C60.7926316,46.5436842 60.1336842,55.0615789 62.0073684,63.5484211 C62.8621053,67.4205263 64.2321053,72.7394737 65.91,76.0947368 L66.0331579,75.8952632 L44.7573684,75.8952632 L44.7573684,76.1710526"/>
    <polyline fill="#1A1918" points="44.7 76.171 66.033 76.171 65.895 76.033 65.895 79.775 66.033 79.638 11.019 79.638 11.157 79.775 11.157 76.033 11.019 76.171 32.882 76.171 32.882 75.895 10.881 75.895 10.881 79.913 66.171 79.913 66.171 75.895 44.7 75.895 44.7 76.171"/>
    <polygon fill="#1A1918" points="33.192 20.031 44.332 20.031 44.332 19.481 33.192 19.481"/>
    <polygon fill="#1A1918" points="47.336 20.031 58.629 20.031 58.629 19.481 47.336 19.481"/>
    <polygon fill="#1A1918" points="18.994 20.031 30.287 20.031 30.287 19.481 18.994 19.481"/>
    <polyline id="b" fill="#FFFFFF" points=".305 .679 18.312 .447 18.312 30.191 .305 30.191 .305 .679" transform="translate(29.474 49.474)"/>
    <g transform="translate(29.474 49.474)">
      <path fill="#1A1918" d="M9.33947368,6.48631579 C12.64,6.50526316 14.8573684,9.56315789 14.8573684,12.4073684 L14.8573684,33.6805263 L15.5457895,33.6805263 L15.5457895,12.4073684 C15.5457895,9.23263158 13.0531579,5.81947368 9.34315789,5.79842105 L9.33947368,6.48631579" mask="url(#b)"/>
    </g>
    <g transform="translate(29.474 49.474)">
      <mask id="d" fill="white">
        <use xlink:href="#c"/>
      </mask>
      <polyline fill="#1A1918" points="9.102 6.142 9.102 33.796 9.515 33.796 9.515 6.142 9.308 6.349 9.341 6.349 9.341 5.935 9.102 5.935 9.102 33.796 9.515 33.796 9.515 6.142 9.102 6.142" mask="url(#d)"/>
    </g>
    <g transform="translate(29.474 49.474)">
      <mask id="f" fill="white">
        <use xlink:href="#e"/>
      </mask>
      <path fill="#1A1918" d="M9.30842105,5.79842105 C5.57789474,5.79842105 3.07105263,9.21578947 3.07105263,12.4073684 L3.07105263,33.6805263 L3.76,33.6805263 L3.76,12.4073684 C3.76,9.54789474 5.98947368,6.48631579 9.30842105,6.48631579 L9.30842105,5.79842105" mask="url(#f)"/>
    </g>
    <polygon fill="#1A1918" points="16.27 46.745 60.808 46.745 60.808 46.194 16.27 46.194"/>
    <polygon fill="#1A1918" points="44.768 75.758 65.879 75.758 65.879 76.308 44.768 76.308"/>
    <polygon fill="#1A1918" points="11.134 75.758 32.837 75.758 32.837 76.308 11.134 76.308"/>
  </g>
</svg>
