<svg xmlns="http://www.w3.org/2000/svg" width="648" height="422" viewBox="0 0 648 422">
  <g fill="none" fill-rule="evenodd">
    <path fill="#322284" d="M392.951 421.88L392.951 386.172C400.757 386.268 408.025 385.234 415.136 387.044 421.711 388.718 423.483 398.576 418.403 403.996 417.75 404.691 416.923 405.224 416.016 405.961 418.136 410.577 420.181 415.026 422.416 419.891 418.679 420.761 415.451 420.943 412.255 420.799 409.385 416.658 409.765 410.898 404.799 406.734 403.628 412.522 404.262 417.24 403.949 421.88 400.283 421.88 396.617 421.88 392.951 421.88zM0 382.885C3.109 384.446 6.54 382.828 9.822 383.906 11.466 387.605 10.046 391.7 10.961 395.77L20.719 395.77 20.719 384.067 30.9 384.067 30.9 400.855 30.9 417.882C27.666 419.427 24.543 418.234 20.905 418.797L20.905 403.05C17.114 402.363 13.91 402.381 10.241 403.015L10.241 418.066C6.53 418.361 3.265 418.621 0 418.881L0 382.885zM441.944 421.88C441.289 420.529 439.804 420.465 438.698 419.832 431.109 415.488 427.592 406.87 430.057 398.522 432.304 390.912 439.187 385.873 446.796 386.266 454.654 386.672 461.642 392.956 462.883 400.734 464.247 409.278 459.576 417.447 451.479 420.715 450.619 421.063 449.415 420.684 448.943 421.879 446.611 421.88 444.277 421.88 441.944 421.88zM616.923 421.88L616.923 387.306 626.792 387.306C628.158 390.793 627.079 394.694 628.091 399.245 630.873 394.807 633.329 390.889 635.721 387.072 638.691 386.619 641.154 387.696 643.982 388.414 642.464 393.621 638.765 397.606 636.626 402.611 640.748 407.799 643.392 413.974 647.92 418.881L647.92 421.88 636.921 421.88C633.478 418.7 631.528 414.43 628.672 410.394 627.267 414.296 629.502 418.493 626.923 421.88L616.923 421.88zM547.932 421.88C544.638 418.985 540.714 416.861 538.771 412.467 534.628 403.1 537.653 393.14 546.401 388.532 554.206 384.421 563.657 387.345 568.292 395.305 573.05 403.477 570.428 413.941 562.346 419.409 561.192 420.191 559.419 420.177 558.931 421.88L547.932 421.88zM592.926 421.88C592.485 420.283 590.916 420.357 589.792 419.792 581.793 415.772 577.854 409.314 578.955 401.977 580.034 394.792 587.546 387.904 595.68 387.05 599.573 386.642 603.623 386.071 607.59 388.23 606.987 390.025 606.422 391.709 605.879 393.327 593.335 395.274 588.649 398.605 589.337 404.999 590.02 411.326 596.266 414.868 605.786 414.194 606.354 416.042 606.936 417.933 607.429 419.533 607.22 421.329 605.141 420.463 604.924 421.881 600.925 421.88 596.925 421.88 592.926 421.88zM474.94 421.88C473.517 420.832 472.093 419.782 470.554 418.648 470.643 416.664 471.64 415.051 472.892 413.405 476.152 414.606 479.29 417.834 482.774 413.965 483.855 409.968 481.172 407.804 478.655 405.651 472.274 400.194 470.733 396.78 472.797 392.337 475.095 387.391 481.153 385.201 488.384 386.724 489.655 386.991 491.069 386.922 492.097 388.266 492.109 390.056 491.064 391.497 489.992 393.063 487.437 393.293 484.791 391.56 482.203 393.33 481.456 396.254 483.479 397.751 485.402 399.383 488.171 401.736 491.256 403.873 492.6 407.461 495.012 413.903 492.911 417.343 483.94 421.883 480.939 421.88 477.94 421.88 474.94 421.88zM511.936 421.88L511.936 393.257C508.322 393.075 505.405 392.929 502.491 392.781 501.586 390.877 501.916 389.121 502.216 387.077L531.434 387.077C532.046 389.017 531.981 390.762 531.441 392.964L521.979 392.964C521.979 400.991 521.982 408.583 521.977 416.175 521.976 418.138 522.259 420.157 520.936 421.88L511.936 421.88z"/>
    <path fill="#FEFDFD" d="M626.922,421.88 L626.922,407.763 C627.41,407.644 627.9,407.526 628.388,407.407 C631.233,412.232 634.076,417.056 636.92,421.881 C633.588,421.88 630.254,421.88 626.922,421.88 Z"/>
    <path fill="#F9E613" d="M434.426,270.156 C439.998,276.384 441.78,283.636 439.063,291.464 C436.65,298.411 431.376,302.589 423.996,303.786 C415.577,305.15 407.166,305.659 398.781,302.679 C399.332,308.636 404.541,313.352 410.957,313.848 C414.602,314.13 418.28,313.978 421.944,313.988 C426.533,314 429.524,316.068 430.637,320.621 C431.815,325.434 433.708,330.136 432.988,335.581 C429.083,339.166 424.559,342.314 420.942,346.751 C416.426,346.536 412.004,346.325 407.606,346.115 C405.168,342.019 405.598,338.042 407.667,334.509 C410.222,330.141 414.457,332.505 417.944,332.933 C420.684,329.119 420.243,327.017 416.508,325.539 C413.779,324.46 410.884,324.551 408.125,325.101 C391.645,328.382 377.902,323.762 366.829,311.138 C366.281,310.514 365.669,309.943 365.055,309.381 C364.82,309.166 364.494,309.049 364.873,309.264 C351.659,312.954 342.98,320.951 339.276,334.256 C330.641,335.812 323.177,339.621 316.572,345.15 C315.061,346.414 313.115,346.092 311.284,346.132 C308.295,346.197 305.272,346.126 302.326,346.55 C296.739,347.353 292.018,346.415 289.137,341.028 C287.402,340.738 285.819,340.473 283.702,340.12 C287.141,332.985 292.629,340.197 297.025,337.091 C292.665,336.008 292.084,330.567 286.128,330.525 C291.447,326.327 294.982,330.167 298.757,331.108 C299.273,331.219 299.461,331.004 299.366,330.502 L299.366,326.034 C298.92,324.369 296.65,325.107 296.295,323.615 C297.66,319.995 303.277,322.891 305.058,328.151 C305.531,329.547 305.885,330.982 306.266,332.304 C318.903,333.839 327.532,327.684 329.285,315.575 C330.231,309.039 332.248,303.382 339.006,299.203 C332.46,298.584 327.252,300.075 322.055,301.31 C314.61,303.078 307.218,305.163 299.548,305.621 C292.439,306.046 285.213,306.845 278.765,302.326 C271.856,306.124 270.686,316.426 261.188,316.398 C261.07,315.582 260.913,314.491 260.755,313.402 C258.741,313.676 257.976,316.534 255.518,315.752 C254.598,314.256 256.496,312.949 255.623,311.154 C253.082,312.783 250.552,314.406 248.005,316.04 C247.673,315.451 247.351,315.144 247.404,314.935 C249.421,307.055 248.086,304.816 240.05,304.391 C231.378,303.932 224.086,306.927 219.168,314.533 C217.903,316.488 216.3,318.259 215.263,320.319 C213.056,324.708 209.942,327.106 205.903,326.032 C202.953,326.16 202.632,328.443 200.975,328.895 C199.665,324.897 201.241,322.427 207.824,319.137 C211.853,317.122 213.597,314.158 213.489,309.455 C205.004,309.161 200.257,321.081 191.763,315.849 C189.326,315.419 188.841,317.28 187.319,317.457 C186.326,315.669 186.777,314.061 187.662,312.68 C192.281,309.836 197.886,312.211 202.104,309.036 C203.292,308.142 204.469,307.164 204.702,305.334 C202.843,302.312 198.662,302.032 196.332,298.442 C196.224,297.467 196.044,295.85 195.853,294.128 C194.678,293.539 193.546,292.974 192.195,292.297 C193.764,290.058 195.879,289.435 197.709,291.153 C200.594,293.864 204.31,295.453 206.878,298.596 C209.282,301.54 212.324,303.527 216.487,302.173 C220.832,300.76 222.949,297.82 222.457,293.219 C225.427,292.622 226.332,295.177 227.987,296.193 C238.89,297.89 255.658,285.56 257.348,274.577 C254.608,271.842 251.428,272.986 248.564,274.071 C243.283,276.073 238.171,278.516 232.956,280.697 C227.856,282.83 222.717,282.647 217.331,281.16 C218.333,279.183 220.223,279.548 221.604,278.126 C215.707,276.696 209.026,276.886 206.466,269.945 C206.098,269.176 205.924,268.385 206.111,267.528 C206.26,266.845 206.611,266.31 207.165,265.899 C209.169,265.494 210.435,267.417 212.481,267.556 C213.881,266.41 212.228,264.237 212.89,263.784 C215.8,261.166 218.131,262.06 220.322,262.651 C230.05,265.279 236.905,259.696 243.76,254.391 C245.912,252.726 245.62,250.117 244.014,248.07 C239.583,242.423 234.534,237.369 228.863,232.949 C225.992,230.711 222.365,232.256 219.135,231.137 C217.948,227.515 222.236,224.095 219.214,220.334 C216.328,218.389 212.895,218.897 209.919,220.275 C202.768,223.585 197.094,221.18 191.171,216.08 C194.854,210.038 200.796,213.955 205.355,212.805 C207.445,210.32 205.943,208.031 204.95,205.834 C202.34,200.063 201.288,194.164 202.829,187.982 C205.57,186.445 207.072,187.961 208.232,189.955 C210.091,193.15 211.353,196.51 211.398,200.334 C211.443,204.133 213.388,206.501 218.336,207.025 C219.431,200.365 221.761,194.16 224.145,187.703 C227.311,187.207 228.606,189.224 228.994,191.849 C229.556,195.658 229.679,199.491 227.532,203.003 C224.046,208.705 225.328,213.907 228.629,219.36 C234.958,229.813 259.449,240.416 270.5,236.641 C276.457,234.606 281.031,231.071 285.066,226.574 C286.259,225.245 287.217,223.572 286.592,221.463 C284.703,219.599 282.251,220.312 280.011,220.259 C276.669,220.18 273.312,220.219 270.17,218.929 C267.553,217.856 265.343,216.381 266.75,212.934 C268.434,211.349 270.421,211.826 272.368,212.15 C276.293,212.803 280.215,212.687 284.056,212.421 C284.372,211.506 283.89,210.947 283.837,210.313 C284.344,208.95 285.94,209.094 286.716,208.377 C287.102,207.095 286.178,206.497 285.787,205.689 C279.515,198.523 271.153,199.674 263.102,200.513 C260.937,195.962 263.262,193.325 266.354,192.064 C273.25,189.247 280.396,186.947 287.924,190.089 C295.674,193.448 303.24,197.291 311.927,192.31 C317.309,189.223 323.385,189.201 329.669,190.229 C329.792,194.349 326.398,196.462 324.252,199.758 C328.68,199.967 332.615,197.942 336.967,199.057 C335.341,203.406 332.147,205.932 328.202,207.934 C324.435,209.846 320.067,209.456 316.14,211.221 C316.869,214.324 317.522,217.222 318.233,220.106 C319.64,225.813 319.276,231.429 316.705,236.678 C312.471,245.325 308.956,254.366 303.168,262.199 C302.502,263.1 302.174,264.252 301.784,265.085 C302.537,268.239 304.619,268.83 307.171,268.783 C311.834,268.696 316.504,268.49 321.16,268.659 C325.405,268.812 327.528,266.594 328.891,262.971 C330.89,257.657 329.476,252.409 328.6,247.2 C327.747,242.126 326.457,237.126 325.368,232.092 C324.203,226.704 325.457,222.002 328.883,217.63 C335.173,209.602 343.745,204.991 352.782,200.975 C354.139,200.371 355.428,199.614 356.748,198.928 C358.968,197.162 359.703,200.56 361.686,200.25 C367.067,199.028 371.373,194.168 376.922,194.248 C379.22,195.621 378.417,197.769 379.606,199.063 C390.341,203.968 400.715,200.984 411.008,197.389 C413.504,196.519 416.127,195.464 418.104,193.792 C424.335,188.519 431.92,188.376 439.533,187.517 C442.054,189.994 441.228,192.974 440.422,195.814 C437.625,205.665 431.895,213.79 424.991,221.129 C413.022,233.858 398.382,243.089 383.811,252.433 C375.306,257.888 366.615,263.121 359.129,269.971 C360.894,272.082 363.567,272.144 365.861,272.919 C376.012,276.347 385.76,280.497 394.309,287.149 C402.175,293.271 411.343,294.222 420.878,293.34 C422.714,293.171 424.5,292.618 426.043,291.59 C429.231,289.468 430.712,286.437 430.275,282.619 C429.84,278.816 427.4,276.816 423.866,275.851 C418.824,274.475 413.936,276.146 409.019,276.665 C404.72,277.121 400.402,277.553 396.105,277.868 C389.334,278.366 383.719,275.867 380.09,269.776 C377.14,261.208 380.571,253.675 389.118,250.644 C398.026,247.485 407.062,247.743 416.114,250.285 C419.057,251.112 421.994,252.746 425.171,251.297 C426.866,248.471 425.428,245.967 424.753,243.491 C423.833,240.128 422.505,236.881 422.573,233.295 C422.682,227.558 424.727,224.545 430.341,223.265 C437.378,221.661 444.145,222.443 449.726,226.167 C451.049,228.511 450.877,230.217 450.182,231.734 C447.163,238.323 447.312,245.298 447.315,252.307 C447.319,263.148 441.347,267.722 430.801,265.19 C426.53,264.165 422.822,261.876 418.961,259.955 C410.838,255.914 402.399,255.087 393.742,257.565 C388.481,259.07 387.165,261.663 388.333,266.929 C390.732,269.337 393.911,269.435 397.08,269.383 C402.423,269.294 407.692,268.509 412.897,267.342 C417.833,266.236 422.825,266.372 427.806,266.622 C430.477,266.758 433.181,267.189 434.426,270.156 Z"/>
    <path fill="#322284" d="M266.919,212.868 C266.416,217.668 270.009,218.457 273.302,218.722 C278.082,219.107 282.917,218.821 287.62,218.821 C290.309,221.842 288.469,224.49 286.882,226.54 C280.891,234.286 273.188,239.498 263.023,238.635 C250.563,237.578 239.545,232.715 230.578,223.772 C227.969,221.168 225.959,218.117 224.662,214.608 C223.25,210.789 222.893,206.981 225.716,203.759 C229.024,199.984 227.801,195.595 227.869,191.399 C227.898,189.639 226.696,188.386 224.602,188.447 C223.548,189.901 225.76,191.272 223.69,193.715 C218.182,196.348 222.759,204.219 218.901,208.771 C213.644,208.803 209.894,205.714 210.089,200.704 C210.249,196.585 208.22,193.433 207.013,189.912 C206.445,188.257 205.101,187.186 203.913,187.815 C201.105,197.514 207.482,205.336 208.417,214.127 C202.473,216.004 196.826,211.654 191.484,216.08 C193.944,217.11 196.172,217.127 197.665,218.794 C200.162,221.583 203.178,221.465 206.328,220.01 C209.233,218.667 212.259,217.896 215.481,217.806 C221.459,217.64 223.661,220.837 221.253,226.38 C220.662,227.74 219.862,229.011 219.143,230.354 C233.813,228.765 238.716,241.317 246.735,249.305 C247.132,249.701 247.143,250.559 247.186,251.213 C247.229,251.862 247.085,252.525 246.991,253.525 C237.501,261.841 227.512,268.617 213.862,262.129 C212.917,265.57 215.547,267.176 215.955,269.482 C212.019,271.24 210.166,267.834 207.609,266.323 C206.254,267.304 206.819,268.77 206.466,269.947 C175.157,270.061 143.848,270.196 112.54,270.284 C80.397,270.375 48.255,270.42 16.112,270.485 C14.835,270.487 13.559,270.485 11.989,269.604 C13.18,269.071 14.34,268.446 15.568,268.016 C49.467,256.157 83.045,243.486 115.33,227.661 C140.482,215.334 164.442,201.078 185.937,182.937 C209.881,162.73 228.897,138.574 243.849,111.122 C262.325,77.2 274.911,40.962 285.982,4.125 C286.354,2.886 286.805,1.671 287.938,0.384 C288.077,1.672 288.337,2.96 288.336,4.247 C288.286,65.536 288.214,126.824 288.135,188.113 C288.134,188.773 287.998,189.432 287.925,190.092 C286.414,190.917 284.971,190.869 283.235,190.465 C277.498,189.126 272.127,191.365 266.804,192.954 C263.87,193.828 263.269,195.777 263.292,200.328 C269.896,196.719 276.239,198.127 282.378,201.03 C284.45,202.009 287.275,202.679 286.896,206.032 C285.378,206.996 284.088,206.188 282.779,205.517 C276.597,202.019 271.568,205.88 266.286,208.12 C262.836,209.88 259.464,212.56 255.556,209.062 C254.416,205.835 252.633,202.791 252.697,199.212 C252.718,197.652 253.113,196.187 253.831,194.81 C255.19,192.21 256.329,189.577 255.181,186.789 C253.895,185.036 252.25,185.223 250.639,185.308 C249.748,185.425 248.92,185.766 248.077,186.039 C247.513,186.31 246.862,186.426 246.263,187.268 C248.252,188.192 250.771,187.19 252.398,188.926 C253.635,192.435 253.199,195.813 251.631,199.106 C249.444,203.065 249.431,207.062 252.193,210.631 C254.894,214.12 258.646,214.133 262.526,212.734 C263.772,212.285 265.027,211.842 266.365,212.401 C266.551,212.553 266.735,212.711 266.919,212.868 Z"/>
    <path fill="#E41418" d="M356.923,269.669 C367.226,261.234 378.524,254.25 389.723,247.117 C405.053,237.354 419.67,226.756 430.834,212.088 C436.97,204.027 440.143,195.66 439.62,187.912 C437.289,188.906 435.083,189.846 432.65,190.884 C431.504,190.271 430.223,189.585 428.853,188.852 C413.082,199.455 396.712,207.058 376.806,200.021 C376.145,198.74 378.198,197.33 377.87,194.612 C371.432,196.342 366.091,200.212 360.149,202.694 C358.42,201.977 360.133,198.102 356.749,198.926 C356.661,134.458 356.572,69.99 356.484,5.523 C356.482,3.752 356.484,1.98 357.306,0.008 C358.854,4.766 360.464,9.506 361.94,14.286 C371.713,45.951 383.042,77 398.38,106.46 C418.45,145.009 446.284,176.672 482.505,200.803 C520.419,226.063 562.07,243.527 604.637,259.051 C614.134,262.515 623.619,266.012 633.175,269.518 C632.594,271.419 631.191,270.434 630.328,270.433 C566.86,270.34 503.391,270.185 439.924,270.041 C438.094,270.037 436.264,270.115 434.43,270.156 C428.034,266.473 421.207,267.426 414.462,268.497 C405.612,269.904 396.839,272.497 387.904,269.325 C383.976,263.646 385.694,258.581 392.696,256.317 C403.137,252.94 413.1,254.65 422.447,260.16 C426.226,262.389 430.127,264.148 434.536,264.548 C441.44,265.173 446.461,260.954 446.089,254.08 C445.608,245.166 445.635,236.455 450.202,228.609 C444.885,223.75 432.991,222.4 427.407,225.685 C424.861,227.182 423.736,229.328 423.727,232.278 C423.716,236.375 425.266,240.083 426.284,243.933 C426.987,246.596 428.633,249.167 427.33,252.276 C423.902,255.077 420.373,253.126 417.069,252.015 C408.946,249.288 400.813,248.626 392.518,250.945 C381.867,253.923 378.83,258.986 381.155,269.814 C379.971,271.21 378.299,271.503 376.676,271.418 C370.073,271.07 363.26,272.985 356.923,269.669 Z"/>
    <path fill="#322284" d="M81.63 384.701C84.35 383.837 86.656 384.244 89.447 384.289 93.911 390.062 98.534 396.041 104.069 403.196L104.069 384.613C107.262 383.982 109.818 384.058 112.624 384.464L112.624 418.475C110.377 419.438 108.238 418.913 105.753 418.914 100.842 412.738 95.815 406.416 89.881 398.953L89.881 418.629 81.631 418.629C81.63 407.356 81.63 396.002 81.63 384.701zM293.037 420.141L293.037 385.382C300.379 385.744 307.517 385.222 314.443 387.141 320.724 388.881 324.94 395.693 324.704 403.126 324.436 411.509 319.365 418.095 311.531 419.601 305.503 420.76 299.369 420.838 293.037 420.141zM274.829 420.186C273.877 417.29 273.06 414.806 272.184 412.143L261.261 412.143C260.251 414.442 259.139 416.975 257.933 419.722L249.885 419.722C254.668 408.061 259.311 396.746 263.961 385.413L272.692 385.413C276.936 396.539 281.231 407.799 285.651 419.387 282.096 420.87 278.673 420.056 274.829 420.186zM62.499 418.43C61.561 415.83 60.666 413.35 59.698 410.666L48.919 410.666C47.964 413.178 46.982 415.762 46.036 418.25L38.031 418.25C42.746 406.579 47.267 395.389 51.767 384.251 54.687 383.664 57.286 383.789 60.307 384.155 64.56 395.365 68.843 406.654 73.31 418.429 69.477 418.43 66.236 418.43 62.499 418.43zM178.039 412.735L178.039 419.341 155.45 419.341 155.45 385.086 175.842 385.086C176.61 386.899 176.318 388.94 175.923 391.367L166.522 391.367C165.428 393.627 166.131 395.564 165.851 397.809 169.172 397.965 172.104 398.104 175.176 398.247 176.347 400.147 175.662 402.093 175.938 404.34L166.619 404.34C165.33 407.162 166.118 409.721 165.911 412.734 170.102 412.735 173.858 412.735 178.039 412.735zM227.414 391.826C223.917 391.626 221.15 391.467 218.141 391.295L218.141 385.103 246.905 385.103C248.167 387.156 247.795 389.098 247.562 391.11 244.559 392.434 241.294 390.964 237.899 392.171L237.899 419.637 227.414 419.637 227.414 391.826zM121.063 416.449C121.929 414.559 122.671 412.941 123.457 411.227 126.812 412.331 130.495 415.663 133.018 411.781 135.699 407.654 131.177 405.475 128.802 402.948 127.443 401.502 125.783 400.275 124.681 398.661 121.34 393.77 122.856 388.332 128.186 385.791 132.919 383.534 137.714 383.213 142.772 385.8 142.623 387.85 141.705 389.529 140.829 391.222 138.168 391.349 135.652 388.653 133.074 391.386 132.302 394.945 135.21 396.548 137.366 398.445 139.493 400.318 141.853 401.954 142.863 404.743 144.245 408.557 144.499 412.724 141.495 415.517 137.097 419.608 131.444 420.444 125.627 418.781 124.086 418.339 122.711 417.312 121.063 416.449zM187.689 416.952C188.527 415.106 189.251 413.514 190.053 411.747 192.954 413.08 195.515 414.877 198.832 413.547 201.538 411.401 200.691 408.979 198.748 406.825 196.753 404.615 194.416 402.719 192.292 400.621 187.597 395.987 188.739 389.092 194.684 386.341 199.439 384.141 204.233 384.057 209 386.2 209.551 388.381 207.966 389.788 207.714 391.695 205.098 392.318 202.346 389.203 199.742 391.908 198.968 394.893 201.39 396.326 202.934 398.096 204.674 400.09 206.852 401.726 208.453 403.815 212.465 409.048 210.483 416.4 204.324 418.583 198.762 420.553 193.082 421.271 187.689 416.952zM340.863 420.482L340.863 392.172 331.956 392.172C331.074 389.93 331.439 388.162 331.877 386.071L361.019 386.071C361.672 388.218 361.751 390.123 360.855 392.494L351.193 392.494 351.193 420.481C347.645 420.482 344.57 420.482 340.863 420.482z"/>
    <path fill="#FEFDFD" d="M409.674 393.146C412.141 399 410.8 400.916 404.548 400.745 403.645 398.388 404.179 395.947 404.21 393.489 405.917 392.129 407.666 392.773 409.674 393.146zM446.085 414.599C439.155 411.189 437.523 399.319 443.069 394.633 445.18 392.85 447.263 392.948 449.332 394.688 454.854 399.326 453.006 411.389 446.085 414.599zM560.094 403.992C560.094 404.158 560.096 404.324 560.094 404.491 560.031 410.498 557.342 414.951 553.768 414.971 550.138 414.992 546.98 409.757 547.193 404.077 547.2 403.911 547.199 403.744 547.212 403.578 547.626 398.077 550.66 393.775 554.059 393.871 557.562 393.972 560.037 398.119 560.094 403.992zM356.923 269.669C364.999 269.718 373.076 269.767 381.154 269.815 385.285 276.039 391.376 277.255 398.227 276.467 404.34 275.764 410.441 274.947 416.561 274.319 418.693 274.1 420.906 274.039 423.016 274.347 428.798 275.193 431.626 278.192 431.903 283.378 432.15 288.001 429.057 292.67 424.371 293.9 414.606 296.464 404.813 295.741 396.573 289.983 384.809 281.765 372.206 275.777 358.502 271.863 357.403 271.55 357.417 271.503 356.923 269.669z"/>
    <path fill="#322284" d="M283.893,209.941 C284.358,211.982 286.752,211.045 287.943,212.62 C280.797,214.424 273.843,212.964 266.919,212.869 C266.919,212.868 267.006,212.963 267.006,212.963 C267.635,208.597 271.051,207.506 274.571,206.737 C276.313,206.357 278.159,206.52 279.942,206.876 C280.954,207.105 281.884,207.53 282.748,208.105 C283.165,208.392 283.495,208.764 283.742,209.209 C283.793,209.451 283.843,209.696 283.893,209.941 Z"/>
    <path fill="#E41418" d="M282.403,208.91 C281.939,208.75 281.475,208.59 281.011,208.429 C279.011,205.633 275.152,208.159 272.672,205.356 C275.97,203.294 279.092,203.374 282.333,204.869 C283.855,205.255 285.378,205.641 286.9,206.028 C287.733,206.992 288.566,207.955 289.449,208.976 C287.757,210.774 285.58,208.968 283.894,209.942 L283.964,209.976 C283.57,209.435 283.078,209.039 282.403,208.91 Z"/>
    <path fill="#FEFDFD" d="M299.366,330.499 C299.493,330.773 299.621,331.048 299.746,331.318 C299.234,332.01 299.007,331.509 298.758,331.105 C298.957,330.899 299.16,330.697 299.366,330.499 Z"/>
    <path fill="#F9E613" d="M282.333,204.868 C279.42,204.613 276.507,204.363 273.31,205.243 C275.693,207.236 279.657,204.821 281.012,208.429 C275.056,205.966 270.708,208.466 267.007,212.963 C264.825,212.193 263.299,213.987 261.422,214.431 C256.846,215.512 253.038,214.395 250.645,210.355 C248.38,206.531 247.549,202.436 251.08,198.673 C252.613,200.316 252.096,202.383 252.214,204.303 C252.511,209.159 254.654,211.407 259.349,210.785 C262.303,210.393 265.443,209.609 267.315,206.734 C271.005,204.754 274.791,203.009 279.095,203.125 C280.349,203.158 282.32,202.338 282.333,204.868 Z"/>
    <path fill="#E41418" d="M267.315,206.734 C267.773,206.85 268.231,206.967 268.755,207.101 C268.245,208.634 266.841,208.88 265.766,209.425 C261.943,211.36 257.943,213.769 253.714,211.032 C249.664,208.414 250.913,204.05 251.118,200.152 C251.144,199.661 251.093,199.166 251.078,198.673 C251.388,195.573 251.697,192.474 252.006,189.374 C251.136,187.546 247.971,187.878 248.042,185.164 C248.707,184.832 249.373,184.5 250.038,184.169 C255.227,185.204 256.114,186.392 255.235,191.423 C255.006,192.732 254.989,194.032 254.912,195.339 C253.857,196.339 253.763,197.652 253.723,198.985 C252.927,202.642 254.17,205.835 255.985,208.896 C257.208,209.285 258.431,209.673 259.623,210.052 C262.236,208.926 264.775,207.83 267.315,206.734 Z"/>
    <path fill="#F9E613" d="M254.912,195.34 C253.851,194.055 253.89,192.531 254.266,191.093 C255.269,187.254 253.601,185.161 250.038,184.169 C257.375,183.781 258.483,186.32 254.912,195.34 Z"/>
    <path fill="#F9E613" d="M248.042 185.165C249.325 186.603 252.079 186.658 252.006 189.375 249.466 187.828 246.676 188.365 243.495 188.789 244.358 186.123 246.036 185.437 248.042 185.165zM255.985 208.896C251.8 206.375 252.483 202.744 253.723 198.985 254.478 202.289 255.231 205.593 255.985 208.896z"/>
    <path fill="#FEFDFD" d="M303.249 413.699L303.249 393.06C310.527 392.394 314.522 395.868 314.637 402.749 314.758 410.088 310.48 414.282 303.249 413.699zM267.331 394.968C268.644 399.406 269.614 402.684 270.669 406.249 268.027 406.795 265.711 406.564 262.931 406.097 264.352 402.502 265.647 399.227 267.331 394.968zM58.205 404.768L50.934 404.768C52.154 401.218 53.26 398.002 54.619 394.05 56.71 397.586 57.157 401.034 58.205 404.768z"/>
    <path fill="#F9E613" d="M282.403,208.91 C283.418,208.54 284.043,208.741 283.963,209.975 C283.164,210.029 282.689,209.609 282.403,208.91 Z"/>
  </g>
</svg>
