<svg xmlns="http://www.w3.org/2000/svg" width="200" height="88" viewBox="0 0 200 88">
  <g fill="none" fill-rule="evenodd">
    <polygon fill="#D50B4C" points="198.77 2.432 193.909 2.432 191.317 7.146 190.275 2.432 188.45 7.146 186.625 2.432 185.583 7.146 182.991 2.432 178.13 2.432 178.116 6.351 184.042 8.743 178.183 11.278 184.197 13.324 178.553 16.202 184.646 17.682 179.422 21.077 185.423 21.72 181.041 25.75 186.855 25.752 183.831 29.884 188.45 33.435 193.071 29.884 190.044 25.752 195.859 25.75 191.475 21.72 197.479 21.077 192.254 17.682 198.343 16.202 192.705 13.324 198.717 11.278 192.859 8.743 198.784 6.351"/>
    <path fill="#1E335D" d="M155.441013 30.2041861L153.016961 29.5850646 154.854461 29.15326 154.767565 28.6789255 156.03277 28.6417411C156.03277 28.6417411 155.218794 27.5183052 154.162683 27.6040618L151.822133 28.830917C151.506228 28.6951937 148.867875 26.0655544 148.867875 26.0655544 148.867875 26.0655544 150.978059 23.9692797 149.806086 22.4772528 149.519147 22.1107534 146.9299 20.668693 146.653822 20.668693 146.36824 20.668693 144.072948 22.6940847 144.072948 22.6940847 144.94825 23.3892019 145.735298 24.436642 145.621473 25.3797332 145.545664 26.0172145 144.665158 26.7179094 144.665158 26.7179094 144.525987 27.1222906 149.959966 30.187453 149.959966 30.187453L149.374998 30.7473118C148.838909 31.3404041 149.129697 32.035289 149.129697 32.035289L149.903845 31.4298793 150.09891 31.6908677 151.033274 30.9515939 151.405301 32.7492308 151.94501 32.6862496 152.114277 34.0425532C153.130787 33.6978997 153.191886 32.1754279 153.191886 32.1754279L152.502597 30.4270605 154.77277 32.2119152 155.068761 31.5279533 156.231003 31.9007276C156.231229 31.9000304 155.962393 30.8265612 155.441013 30.2041861M171.213314 8.48591887L169.455814 8.71734226 170.88153 7.11343143 170.300968 6.54245345 171.080089 5.47607794C171.080089 5.47607794 169.726217 5.35323184 169.06823 6.33109573L167.904082 9.0386149 167.913149 6.93707704C167.857581 6.95669675 167.381179 6.9390836 167.300966 6.94599509L167.163788 5.64819626C167.163788 5.64819626 166.107289 6.12129866 165.984992 7.77849476L167.045676 9.61695023 162.31003 15.4058777C162.319098 15.4165794 162.319098 15.4185859 162.321191 15.4199236 163.040558 16.3732629 163.222144 17.1609494 163.326073 17.6300387L163.357462 17.7528848 163.742954 19.4528875 168.439771 12.3973744 169.774811 13.2100315C170.536726 13.1763659 170.896411 12.2199053 170.896411 12.2199053L169.721102 11.8074456 169.522543 10.1892659 170.896178 10.2817907 171.146818 9.86219653 172.644377 10.0686493C172.505804 8.94140818 171.838053 8.63908634 171.213314 8.48591887"/>
    <path fill="#1E335D" d="M171.523017,29.5967312 L169.390402,28.7048606 L170.83023,28.595773 C170.810169,28.5446525 171.021265,27.9348577 171.015794,27.8511021 L172.644377,27.6838194 C172.644377,27.6838194 171.470129,26.6228402 170.510167,26.7282763 L168.094192,27.6347528 L161.980165,22.8643404 C161.980165,22.8643404 163.325615,22.6240283 164.100013,22.2839855 C164.100013,22.2839855 163.447805,21.5158083 163.259961,20.4929413 L162.841874,18.5635979 C162.736325,18.1124135 162.629182,17.413386 161.962156,16.4945858 C161.856608,16.3142947 161.207819,15.6593129 161.207819,15.6593129 L160.327645,14.9637086 L161.340267,14.8256375 C162.669303,14.54379 162.736325,13.5040349 162.736325,13.5040349 L158.473376,13.5040349 C158.473376,13.5040349 158.455367,13.2402165 158.455367,12.7144054 L162.703955,12.7144054 C163.425692,12.7144054 164.009511,12.4921224 164.441961,12.0480128 C165.172817,11.3019726 165.276314,10.3375291 165.276314,10.2955373 C165.276314,10.0591048 165.087331,9.88246512 164.856174,9.88246512 C164.623421,9.89159375 164.43991,10.0791879 164.443329,10.3190435 C164.443329,10.3190435 164.319772,10.9815565 163.838309,11.4587574 C163.565663,11.7351278 163.181998,11.8700038 162.703726,11.8700038 L158.480899,11.8700038 C158.500732,11.7426589 158.50438,11.8083853 158.531963,11.735356 C158.660764,11.2967236 159.160691,11.1239636 159.677261,11.1205403 C160.62058,11.1205403 161.635026,11.1205403 162.890886,11.0730713 C163.469234,11.0605194 163.763765,10.1232337 163.763765,10.1232337 C163.763765,10.1232337 164.029344,8.60901623 164.029344,8.3942644 C164.029344,8.17586112 163.938386,8.13044595 163.67463,8.03915933 C163.409051,7.95357806 162.347645,7.68816214 161.778415,7.33305704 C161.207819,6.9854831 160.367539,6.62695476 159.896791,6.62695476 L157.302319,6.62695476 C156.904292,6.62695476 156.244332,7.10712257 156.244332,7.10712257 C156.244332,7.10712257 155.953905,6.15523096 155.237638,5.90784413 L154.177144,5.54383859 L154.601388,8.09210558 L153.946671,10.3888779 C153.946671,10.3888779 152.699473,11.0673659 152.219607,11.1584244 L151.459799,11.134918 L152.032448,11.7207501 C152.243088,11.9190704 152.879794,11.9119957 153.523112,11.8499207 L153.368324,12.3577028 C153.317943,12.3921635 152.163072,13.0733901 151.712156,13.1623946 L150.922941,13.1224567 L151.512231,13.7212972 C151.712156,13.9161942 152.328346,13.9161942 152.948639,13.855945 L152.637695,14.9023183 C152.637695,14.9023183 152.537846,15.8487327 151.421273,15.8487327 C150.415946,15.8487327 137.808331,14.3559677 137.808331,14.3559677 C136.908552,14.2703864 134.912261,13.9483727 134.912261,12.2449637 C134.912261,10.6506423 136.479521,10.3993758 137.91935,10.3993758 L148.197845,10.3959526 C150.993838,10.3959526 152.357526,8.95841594 152.482906,6.15523096 C152.595293,3.77310569 154.004346,2.82281161 154.877225,2.82281161 L159.142226,2.82281161 C160.360472,2.25683434 161.171344,0 161.171344,0 C161.171344,0 160.251505,0.316536478 159.295191,0.595417211 L154.403058,0.595417211 C153.35966,0.595417211 152.156232,2.06946848 151.641487,3.77287747 L151.639435,3.77287747 C151.125374,2.06946848 150.048922,0.595417211 148.880145,0.595417211 L143.988011,0.595417211 C143.029874,0.316536478 142.111402,0 142.111402,0 C142.111402,0 142.920678,2.25683434 144.14052,2.82258339 L148.405065,2.82258339 C149.306895,2.82258339 150.799839,3.77287747 150.799839,6.15500275 C150.799839,7.99328781 149.946566,8.78337378 148.211067,8.78337378 L143.976613,8.78337378 C144.116584,8.27011458 144.407695,7.3052146 144.685813,6.89761969 L145.594482,6.15500275 L144.338622,6.15500275 C143.653358,6.15500275 142.402513,8.10625502 141.945671,8.78337378 L140.440645,8.78337378 C140.615266,8.1320435 141.055467,6.50097917 141.398555,5.9842967 L142.569612,5.08352563 C142.569612,5.08352563 141.989896,5.09265429 140.956986,5.09265429 C140.07704,5.09265429 138.413578,7.96430423 137.855291,8.78360196 C136.348897,8.78360196 133.265212,9.32242146 133.265212,12.263221 C133.265212,14.6147653 135.423587,15.7613257 137.621171,16.0326753 C137.706202,16.0507044 140.548244,16.4017016 140.548244,16.4017016 L138.183105,21.6999791 C138.183105,21.6999791 137.168204,21.5473021 136.934084,21.657759 C136.606954,21.8111206 134.127148,27.8367245 134.127148,27.8367245 L132.474401,27.9042766 C132.205402,28.0094845 131.619987,28.6138022 131.487083,28.8796745 C131.309043,29.2416261 131.306991,29.5928516 131.306991,29.5928516 L132.254414,29.2598835 L132.676606,29.6314201 L133.692647,29.3274356 L132.850771,31.269331 L133.391049,31.8282335 L133.210956,33.4077209 C134.058303,33.3314965 134.703445,31.980454 134.703445,31.980454 L134.78346,29.9988489 L135.51614,31.8282335 C135.623284,31.8394161 135.623284,31.842383 135.990764,31.8752462 L136.945254,33.4346505 C136.945254,33.4346505 137.234314,33.1963923 137.337354,32.8166398 C137.415774,32.5233814 137.432416,31.409456 137.432416,31.409456 C137.119192,31.0379193 136.112269,29.8475413 136.112269,29.8475413 L137.810382,31.0673592 C137.82634,31.0141848 138.093515,30.7905324 138.137512,30.724806 L139.81716,31.387319 C139.81716,31.387319 139.459027,29.8696784 139.020877,29.5275816 L136.226936,28.4426397 L142.811255,22.2184873 C144.367801,20.8934615 145.756793,19.7578555 146.458698,19.6667971 C147.185907,19.5720872 152.772423,23.2596116 153.768858,23.4068113 C154.528666,23.5179528 155.739162,23.3757739 155.739162,23.3757739 C155.739162,23.3757739 155.581181,24.2681009 155.706563,24.4677905 C156.021155,25.1010916 165.576544,28.768533 165.576544,28.768533 L164.376535,29.4819383 C163.963918,29.7423334 163.716804,30.9760726 163.716804,30.9760726 L165.236192,30.138974 L165.583383,30.6287269 L166.821918,29.6368974 L166.637722,31.2928373 L167.2049,31.3658666 L167.243426,33.4346505 C168.025118,33.1041927 168.506809,31.5007427 168.506809,31.5007427 L168.492447,29.9461309 L170.09755,31.3836675 L170.692083,30.8304704 L172.099085,31.5007427 C172.099085,31.5007427 172.046653,30.0753016 171.523017,29.5967312 M157.837125,9.57300333 C157.720635,9.50043046 157.684617,9.3491228 157.75369,9.22200614 C158.004907,8.82878888 158.63546,7.91318371 159.113047,7.82600497 C159.228169,7.80592192 159.340784,7.7949675 159.451119,7.7949675 C159.918904,7.7949675 160.298466,7.96818394 160.680764,8.16102699 L161.1237,8.37577882 C161.245889,8.44287459 161.294902,8.59555147 161.231527,8.72517854 C161.177044,8.84476404 161.011313,8.90136174 160.891403,8.83244033 L160.451658,8.61563452 C160.404014,8.588705 160.3607,8.56656797 160.316931,8.54648493 C160.344058,8.63024039 160.355001,8.71764739 160.355001,8.8068801 C160.355001,9.3365709 159.927794,9.76630281 159.400511,9.76630281 C158.962361,9.76630281 158.595337,9.47144697 158.485686,9.0617981 C158.376491,9.20557454 158.276642,9.3491228 158.18272,9.48947604 C158.126186,9.60198682 157.958631,9.6460327 157.837125,9.57300333"/>
    <path fill="#1E335D" d="M159.880882 9.11854103C160.215338 9.11854103 160.486322 8.98409819 160.486322 8.81328014 160.486322 8.64639062 160.215338 8.5106383 159.880882 8.5106383 159.547876 8.5106383 159.270517 8.64624514 159.270517 8.81328014 159.270517 8.98409819 159.547876 9.11854103 159.880882 9.11854103M9.74528875 47.1458967C9.14954407 46.3738602 7.97446809 45.793921 6.8668693 45.793921 5.58237082 45.793921 4.10212766 46.4158055 4.10212766 47.9446809 4.10212766 49.3781155 5.32036474 49.8006079 7.09422492 50.356231 9.10516717 50.9768997 11.6741641 51.8601824 11.6741641 54.9367781 11.6741641 58.2972644 9.03768997 59.9355623 5.96048632 59.9355623 3.92644377 59.9355623 1.8231003 59.1653495.582978723 57.7027356L2.57507599 55.8419453C3.35379939 56.9069909 4.76960486 57.5720365 6.00547112 57.5720365 7.3112462 57.5720365 8.83890578 56.9264438 8.83890578 55.2468085 8.83890578 53.6085106 7.20243161 53.1471125 5.23343465 52.5246201 3.32644377 51.9221884 1.2668693 50.9981763 1.2668693 48.0790274 1.2668693 44.8930091 4.16778116 43.4735562 7.00303951 43.4735562 8.57386018 43.4735562 10.3665653 44.024924 11.56231 45.1519757L9.74528875 47.1458967M21.8158055 51.8601824C21.3927052 51.2644377 20.4838906 50.8176292 19.6176292 50.8176292 17.6784195 50.8176292 16.7039514 52.5677812 16.7039514 54.2285714 16.7039514 55.8905775 17.6972644 57.6358663 19.7142857 57.6358663 20.5325228 57.6358663 21.4413374 57.3045593 21.9458967 56.6863222L23.6085106 58.3708207C22.7197568 59.3173252 21.2595745 59.8541033 19.6899696 59.8541033 16.5452888 59.8541033 13.9343465 57.7720365 13.9343465 54.2285714 13.9343465 50.7787234 16.5027356 48.6091185 19.6176292 48.6091185 21.1732523 48.6091185 22.7896657 49.2291793 23.6285714 50.2632219L21.8158055 51.8601824M35.4844985 52.9009119L35.4844985 59.5386018 32.8303951 59.5386018 32.8303951 53.6966565C32.8303951 52.431003 32.5629179 50.8893617 30.8571429 50.8893617 29.1781155 50.8893617 28.3574468 52.3240122 28.3574468 53.7452888L28.3574468 59.5386018 25.7021277 59.5386018 25.7021277 42.8091185 28.3574468 42.8091185 28.3574468 50.3975684 28.4012158 50.3975684C28.8267477 49.5155015 29.9993921 48.6091185 31.5702128 48.6091185 34.3349544 48.6091185 35.4844985 50.7306991 35.4844985 52.9009119"/>
    <polygon fill="#1E335D" points="38.867 42.809 41.527 42.809 41.527 59.543 38.867 59.543"/>
    <path fill="#1E335D" d="M52.481459 53.1665653C52.481459 51.7957447 51.7051672 50.5993921 49.9799392 50.5993921 48.4115502 50.5993921 47.1519757 51.6851064 47.0407295 53.1665653L52.481459 53.1665653 52.481459 53.1665653zM55.1173252 55.0644377L47.0407295 55.0644377C47.1525836 56.5744681 48.5264438 57.6887538 50.0759878 57.6887538 51.4 57.6887538 52.2857143 57.1452888 52.8784195 56.3112462L54.6492401 57.7221884C53.6133739 59.1428571 52.1075988 59.8492401 50.0960486 59.8492401 46.8200608 59.8492401 44.3793313 57.743465 44.3793313 54.2954407 44.3793313 50.8674772 46.7920973 48.6091185 50.006079 48.6091185 52.9683891 48.6091185 55.1398176 50.5325228 55.1398176 54.3598784 55.1398176 54.6012158 55.1398176 54.8291793 55.1173252 55.0644377L55.1173252 55.0644377zM63.8322188 51.7477204C63.3677812 51.1282675 62.4802432 50.5951368 61.506383 50.5951368 60.6674772 50.5951368 59.8030395 50.9057751 59.8030395 51.7477204 59.8030395 52.5677812 60.6243161 52.7902736 62.1075988 53.1471125 63.6784195 53.5221884 65.5386018 54.2285714 65.5386018 56.3082067 65.5386018 58.8942249 63.4297872 59.8541033 61.1088146 59.8541033 59.4735562 59.8541033 57.7726444 59.2291793 56.7513678 58.1021277L58.4930091 56.4668693C59.074772 57.2182371 60.0717325 57.7945289 61.2212766 57.7945289 61.9963526 57.7945289 62.9221884 57.4857143 62.9221884 56.5264438 62.9221884 55.6419453 62.1075988 55.3793313 60.4905775 55.0079027 58.9197568 54.6255319 57.3416413 53.9890578 57.3416413 51.9945289 57.3416413 49.6267477 59.4735562 48.6091185 61.5738602 48.6091185 63.1015198 48.6091185 64.6954407 49.1361702 65.5586626 50.2237082L63.8322188 51.7477204"/>
    <polyline fill="#1E335D" points="66.949 48.919 69.827 48.919 72.036 56.531 72.078 56.531 74.357 48.919 77.19 48.919 79.497 56.531 79.538 56.531 81.795 48.919 84.559 48.919 80.889 59.543 78.188 59.543 75.777 52.102 75.727 52.102 73.339 59.543 70.64 59.543 66.949 48.919"/>
    <path fill="#1E335D" d="M86.6352584 48.918541L89.293617 48.918541 89.293617 59.5428571 86.6352584 59.5428571 86.6352584 48.918541zM87.9410334 43.7191489C88.9112462 43.7191489 89.6644377 44.4042553 89.6644377 45.3088146 89.6644377 46.2170213 88.9112462 46.8990881 87.9410334 46.8990881 86.9647416 46.8990881 86.2571429 46.1525836 86.2571429 45.3088146 86.2571429 44.4662614 86.9647416 43.7191489 87.9410334 43.7191489L87.9410334 43.7191489zM94.7598784 54.1647416C94.7598784 55.8419453 95.8930091 57.5240122 97.7927052 57.5240122 99.7629179 57.5240122 100.957447 55.9288754 100.957447 54.1647416 100.957447 52.3209726 99.7386018 50.7787234 97.8151976 50.7787234 95.8930091 50.7787234 94.7598784 52.2808511 94.7598784 54.1647416L94.7598784 54.1647416zM103.480851 48.918541L103.480851 58.5835866C103.480851 62.412766 101.619453 64.8486322 97.481459 64.8486322 95.76231 64.8486322 93.5902736 64.2297872 92.2164134 63.1015198L93.7416413 61.0449848C94.7598784 62.0218845 96.1294833 62.5471125 97.4589666 62.5471125 100.029787 62.5471125 100.824924 61.0048632 100.824924 58.8942249L100.824924 58.1227964 100.780547 58.1227964C100.006687 59.1671733 98.7665653 59.7173252 97.3021277 59.7173252 94.1155015 59.7173252 92.0595745 57.1933131 92.0595745 54.1884498 92.0595745 51.1136778 94.0522796 48.6091185 97.2601824 48.6091185 98.7446809 48.6091185 100.140426 49.2273556 100.911246 50.5118541L100.957447 50.5118541 100.957447 48.9167173 103.480851 48.9167173 103.480851 48.918541 103.480851 48.918541z"/>
    <polygon fill="#1E335D" points="106.478 52.968 111.788 52.968 111.788 55.229 106.478 55.229"/>
    <polyline fill="#1E335D" points="115.054 43.869 117.844 43.869 117.844 50.201 125.168 50.201 125.168 43.869 127.96 43.869 127.96 59.539 125.168 59.539 125.168 52.591 117.844 52.591 117.844 59.539 115.054 59.539 115.054 43.869"/>
    <path fill="#1E335D" d="M136.739818,57.6407295 C138.846809,57.6407295 139.815198,55.8419453 139.815198,54.1835866 C139.815198,52.5294833 138.846809,50.7738602 136.739818,50.7738602 C134.641945,50.7738602 133.66383,52.5294833 133.66383,54.1835866 C133.66383,55.8419453 134.641945,57.6407295 136.739818,57.6407295 M136.739818,48.6048632 C139.951976,48.6048632 142.514894,50.8431611 142.514894,54.1835866 C142.514894,57.5240122 139.951976,59.8492401 136.739818,59.8492401 C133.52766,59.8492401 130.968997,57.5240122 130.968997,54.1835866 C130.968997,50.8431611 133.52766,48.6048632 136.739818,48.6048632"/>
    <polygon fill="#1E335D" points="145.365 42.809 148.024 42.809 148.024 59.543 145.365 59.543"/>
    <path fill="#1E335D" d="M157.443161 51.7477204C156.978723 51.1282675 156.090578 50.5951368 155.119757 50.5951368 154.281459 50.5951368 153.412158 50.9057751 153.412158 51.7477204 153.412158 52.5677812 154.232827 52.7902736 155.715502 53.1471125 157.287538 53.5221884 159.145289 54.2285714 159.145289 56.3082067 159.145289 58.8942249 157.046201 59.8541033 154.721581 59.8541033 153.084498 59.8541033 151.378723 59.2291793 150.357447 58.1021277L152.109422 56.4668693C152.685714 57.2182371 153.680243 57.7945289 154.827964 57.7945289 155.603647 57.7945289 156.538602 57.4857143 156.538602 56.5264438 156.538602 55.6419453 155.715502 55.3793313 154.10152 55.0079027 152.531915 54.6255319 150.961094 53.9890578 150.961094 51.9945289 150.961094 49.6267477 153.084498 48.6091185 155.186018 48.6091185 156.711246 48.6091185 158.302128 49.1361702 159.164134 50.2237082L157.443161 51.7477204M160.70152 51.0413374L160.70152 48.9167173 162.562918 48.9167173 162.562918 45.8425532 165.172644 45.8425532 165.172644 48.9167173 167.823708 48.9167173 167.823708 51.0413374 165.172644 51.0413374 165.172644 55.9768997C165.172644 56.9234043 165.39696 57.6103343 166.568997 57.6103343 166.92462 57.6103343 167.391489 57.5525836 167.694225 57.3920973L167.786626 59.4790274C167.320365 59.6510638 166.613982 59.7659574 166.018237 59.7659574 163.20304 59.7659574 162.562918 58.0346505 162.562918 56.0012158L162.562918 51.0413374 160.70152 51.0413374M177.424316 53.1665653C177.424316 51.7957447 176.654103 50.5993921 174.928267 50.5993921 173.355623 50.5993921 172.08997 51.6851064 171.977508 53.1665653L177.424316 53.1665653 177.424316 53.1665653zM180.057751 55.0644377L171.977508 55.0644377C172.08997 56.5744681 173.461398 57.6887538 175.01155 57.6887538 176.337994 57.6887538 177.228571 57.1452888 177.826748 56.3112462L179.590881 57.7221884C178.556231 59.1428571 177.051672 59.8492401 175.03769 59.8492401 171.760486 59.8492401 169.323404 57.743465 169.323404 54.2954407 169.323404 50.8674772 171.741641 48.6091185 174.946505 48.6091185 177.91307 48.6091185 180.079635 50.5325228 180.079635 54.3598784 180.079635 54.6012158 180.079635 54.8291793 180.057751 55.0644377L180.057751 55.0644377zM182.917325 48.918541L185.575684 48.918541 185.575684 59.5428571 182.917325 59.5428571 182.917325 48.918541zM184.221277 43.7191489C185.195137 43.7191489 185.951976 44.4042553 185.951976 45.3088146 185.951976 46.2170213 185.195137 46.8990881 184.221277 46.8990881 183.248632 46.8990881 182.541033 46.1525836 182.541033 45.3088146 182.541033 44.4662614 183.248632 43.7191489 184.221277 43.7191489L184.221277 43.7191489zM191.52766 48.918541L191.52766 50.6231003 191.56535 50.6231003C192.034043 49.5635258 193.299088 48.6048632 194.870517 48.6048632 197.635866 48.6048632 198.784195 50.7306991 198.784195 52.9009119L198.784195 59.543465 196.128875 59.543465 196.128875 53.6528875C196.128875 52.3927052 195.841945 50.8176292 194.141641 50.8176292 192.455927 50.8176292 191.658359 52.2808511 191.658359 53.6966565L191.658359 59.5410334 189.00304 59.5410334 189.00304 48.918541 191.52766 48.918541zM20.1683891 85.8796353L23.3331307 85.8796353C28.0474164 85.8796353 30.3300912 82.6899696 30.3300912 79.4607903 30.3300912 76.2322188 28.0474164 73.0407295 23.3331307 73.0407295L20.1683891 73.0407295 20.1683891 85.8796353 20.1683891 85.8796353zM18.5768997 71.6255319L23.7775076 71.6255319C27.6978723 71.6255319 32.0091185 74.2370821 32.0091185 79.4607903 32.0091185 84.6881459 27.6978723 87.2984802 23.7775076 87.2984802L18.5768997 87.2984802 18.5768997 71.6255319 18.5768997 71.6255319zM43.3708207 81.3197568C43.281459 79.3720365 42.0857143 77.9282675 39.9379939 77.9282675 37.9240122 77.9282675 36.4468085 79.5531915 36.3100304 81.3197568L43.3708207 81.3197568 43.3708207 81.3197568zM44.8741641 82.5155015L36.2911854 82.5155015C36.3355623 84.5957447 37.9458967 86.2735562 40.0759878 86.2735562 41.6243161 86.2735562 42.8176292 85.412766 43.3933131 84.4838906L44.518541 85.3702128C43.3057751 86.9167173 41.7768997 87.56231 40.0759878 87.56231 36.9987842 87.56231 34.7173252 85.2389058 34.7173252 82.1136778 34.7173252 78.9878419 36.9987842 76.6729483 39.9398176 76.6729483 43.1908815 76.6729483 44.8954407 78.9738602 44.8954407 81.8085106 44.8954407 82.0036474 44.8954407 82.2486322 44.8741641 82.5155015L44.8741641 82.5155015zM48.1914894 76.9398176L49.6303951 76.9398176C49.674772 77.4881459 49.7203647 78.2674772 49.7203647 78.7082067L49.7610942 78.7082067C50.3379939 77.5118541 51.6212766 76.6741641 53.0790274 76.6741641 53.4595745 76.6741641 53.7677812 76.693617 54.0772036 76.7817629L53.8796353 78.2006079C53.700304 78.1325228 53.2151976 78.0662614 52.8164134 78.0662614 51.2243161 78.0662614 49.7854103 79.2218845 49.7854103 81.981155L49.7854103 87.2924012 48.2784195 87.2924012 48.2784195 79.2218845C48.2784195 78.6644377 48.2589666 77.6389058 48.1914894 76.9398176M69.6717325 81.3197568C69.5866261 79.3720365 68.3902736 77.9282675 66.2382979 77.9282675 64.2237082 77.9282675 62.7410334 79.5531915 62.6109422 81.3197568L69.6717325 81.3197568 69.6717325 81.3197568zM71.1768997 82.5155015L62.5908815 82.5155015C62.6285714 84.5957447 64.2492401 86.2735562 66.375076 86.2735562 67.9264438 86.2735562 69.1179331 85.412766 69.6911854 84.4838906L70.818845 85.3702128C69.6042553 86.9167173 68.0790274 87.56231 66.375076 87.56231 63.2990881 87.56231 61.0158055 85.2389058 61.0158055 82.1136778 61.0158055 78.9878419 63.2990881 76.6729483 66.2382979 76.6729483 69.4924012 76.6729483 71.1951368 78.9738602 71.1951368 81.8085106 71.1951368 82.0036474 71.1951368 82.2486322 71.1768997 82.5155015L71.1768997 82.5155015zM82.1379939 79.300304C81.6492401 78.512462 80.6115502 77.9343465 79.4826748 77.9343465 77.0711246 77.9343465 75.5203647 79.7495441 75.5203647 82.1155015 75.5203647 84.4644377 77.0510638 86.2735562 79.4553191 86.2735562 80.7683891 86.2735562 81.6790274 85.7240122 82.2705167 84.9294833L83.4024316 85.7738602C82.5118541 86.8516717 81.2559271 87.5635258 79.4553191 87.5635258 76.1246201 87.5635258 73.9276596 85.2389058 73.9276596 82.1155015 73.9276596 78.9902736 76.1246201 76.6693009 79.4553191 76.6693009 80.8553191 76.6693009 82.4303951 77.2674772 83.312462 78.4644377L82.1379939 79.300304M87.6346505 78.6370821C88.1854103 77.4431611 89.6516717 76.6693009 91.1075988 76.6693009 93.7416413 76.6693009 95.0486322 78.3781155 95.0486322 80.9428571L95.0486322 87.2948328 93.5428571 87.2948328 93.5428571 81.5659574C93.5428571 79.3884498 92.8972644 77.9282675 90.7319149 77.9282675 89.143465 77.9282675 87.5914894 79.2218845 87.5914894 81.9835866L87.5914894 87.2948328 86.0851064 87.2948328 86.0851064 70.5653495 87.5914894 70.5653495 87.5914894 78.6370821 87.6346505 78.6370821M103.839514 78.2006079L100.922796 78.2006079 100.922796 84.2370821C100.922796 85.7927052 101.563526 86.1477204 102.468085 86.1477204 102.896049 86.1477204 103.379331 86.0139818 103.7769 85.8170213L103.839514 87.1155015C103.311854 87.3191489 102.758055 87.4322188 102.070517 87.4322188 100.961702 87.4322188 99.4158055 86.9410334 99.4158055 84.6589666L99.4158055 78.2006079 97.2753799 78.2006079 97.2753799 76.9398176 99.4158055 76.9398176 99.4158055 74.0224924 100.922796 74.0224924 100.922796 76.9398176 103.839514 76.9398176 103.839514 78.2006079M114.181763 81.3197568C114.097872 79.3720365 112.903951 77.9282675 110.755623 77.9282675 108.737994 77.9282675 107.262614 79.5531915 107.126444 81.3197568L114.181763 81.3197568 114.181763 81.3197568zM115.689362 82.5155015L107.106991 82.5155015C107.145289 84.5957447 108.759271 86.2735562 110.888146 86.2735562 112.436474 86.2735562 113.63465 85.412766 114.209726 84.4887538L115.335562 85.3702128C114.119757 86.9167173 112.593313 87.5635258 110.888146 87.5635258 107.81155 87.5635258 105.528875 85.2389058 105.528875 82.1155015 105.528875 78.9902736 107.81155 76.6729483 110.755623 76.6729483 114.001824 76.6729483 115.712462 78.9738602 115.712462 81.8085106 115.712462 82.0036474 115.712462 82.2486322 115.689362 82.5155015L115.689362 82.5155015z"/>
    <polyline fill="#1E335D" points="135.662 84.968 135.706 84.968 135.706 71.63 137.303 71.63 137.303 87.295 135.308 87.295 126.188 73.815 126.147 73.815 126.147 87.295 124.552 87.295 124.552 71.63 126.539 71.63 135.662 84.968"/>
    <path fill="#1E335D" d="M146.400608 77.9282675C144.012158 77.9282675 142.486322 79.7902736 142.486322 82.1155015 142.486322 84.443769 144.012158 86.2735562 146.400608 86.2735562 148.81459 86.2735562 150.339818 84.443769 150.339818 82.1155015 150.339818 79.7902736 148.81459 77.9282675 146.400608 77.9282675M146.400608 87.5635258C143.189666 87.5635258 140.888146 85.2389058 140.888146 82.1155015 140.888146 78.9902736 143.189666 76.6729483 146.400608 76.6729483 149.629179 76.6729483 151.934954 78.9902736 151.934954 82.1155015 151.934954 85.2389058 149.629179 87.5635258 146.400608 87.5635258M155.229179 76.9398176L156.66383 76.9398176C156.708207 77.4881459 156.756839 78.2674772 156.756839 78.7082067L156.799392 78.7082067C157.370213 77.5118541 158.660182 76.6741641 160.116717 76.6741641 160.494833 76.6741641 160.80304 76.693617 161.116109 76.7817629L160.916109 78.2006079C160.737994 78.1325228 160.248632 78.0662614 159.851672 78.0662614 158.257751 78.0662614 156.822492 79.2218845 156.822492 81.981155L156.822492 87.2924012 155.31307 87.2924012 155.31307 79.2218845C155.31307 78.6644377 155.293009 77.6389058 155.229179 76.9398176M168.116109 86.2735562C170.436474 86.2735562 172.097264 84.4887538 172.097264 82.1155015 172.097264 79.7471125 170.436474 77.9331307 168.116109 77.9331307 165.613982 77.9331307 164.198176 79.8158055 164.198176 82.1155015 164.198176 84.4200608 165.613982 86.2735562 168.116109 86.2735562M167.960486 87.5635258C164.730091 87.5635258 162.602432 85.1708207 162.602432 82.1155015 162.602432 79.0620061 164.730091 76.6729483 167.960486 76.6729483 169.443769 76.6729483 170.986626 77.3805471 171.879027 78.7319149L171.922188 78.7319149 171.922188 70.5653495 173.424316 70.5653495 173.424316 87.2984802 171.922188 87.2984802 171.922188 85.5440729 171.879027 85.5440729C170.986626 86.8516717 169.441337 87.5635258 167.960486 87.5635258M185.514286 81.3197568C185.424924 79.3720365 184.229787 77.9282675 182.081459 77.9282675 180.066261 77.9282675 178.58845 79.5531915 178.45228 81.3197568L185.514286 81.3197568 185.514286 81.3197568zM187.018845 82.5155015L178.435866 82.5155015C178.471125 84.5957447 180.090578 86.2735562 182.217021 86.2735562 183.759271 86.2735562 184.956231 85.412766 185.535562 84.4887538L186.664438 85.3702128C185.443769 86.9167173 183.919149 87.5635258 182.217021 87.5635258 179.137386 87.5635258 176.858359 85.2389058 176.858359 82.1155015 176.858359 78.9902736 179.137386 76.6729483 182.081459 76.6729483 185.333131 76.6729483 187.03769 78.9738602 187.03769 81.8085106 187.03769 82.0036474 187.03769 82.2486322 187.018845 82.5155015L187.018845 82.5155015zM191.780547 76.9398176C191.827964 77.4881459 191.868085 78.2674772 191.868085 78.7082067L191.915502 78.7082067C192.485714 77.5118541 193.994529 76.6741641 195.453495 76.6741641 198.085106 76.6741641 199.392097 78.3781155 199.392097 80.9428571L199.392097 87.2893617 197.888754 87.2893617 197.888754 81.5659574C197.888754 79.3933131 197.249848 77.9343465 195.074164 77.9343465 193.485106 77.9343465 191.931307 79.2218845 191.931307 81.9793313L191.931307 87.2893617 190.429787 87.2893617 190.429787 79.2218845C190.429787 78.6644377 190.407903 77.6389058 190.341641 76.9398176L191.780547 76.9398176"/>
  </g>
</svg>
