<svg xmlns="http://www.w3.org/2000/svg" width="50" height="28" viewBox="0 0 50 28">
  <g fill="#223058" fill-rule="evenodd">
    <path d="M18.0089637 5.09787857L17.0843523 13.2743905 8.28875648 8.94504219 9.02709845 3.48629864C9.14367876 2.61733474 9.68253886 2.07842241 10.4338342 2.07842241 10.6799482 2.07842241 10.9390155 2.13515002 11.2058549 2.24576887L18.0089637 5.09787857zM16.7265544 15.401676L13.3871762 27.8482302 1.17992228 24.545136C.628108808 24.3955813.237176166 24.091315.0788860104 23.6890647-.0788860104 23.2868143.00116580311 22.7992147.306865285 22.3172879L7.54002591 10.8789381 16.7265544 15.401676z"/>
    <polygon points="27.926 .493 27.848 7.999 19.206 12.942 20.097 5.072"/>
    <polygon points="32.768 22.567 15.597 27.606 18.838 15.531 28.32 10.108"/>
    <path d="M42.8743782 11.3661767L29.923601 7.81554383 30.0036528.0515963432 37.2085751 2.14278247C38.6800777 2.57107595 40.4103886 4.21359822 40.908057 5.65989451L42.8743782 11.3661767zM49.7267617 23.3099953C49.7109585 23.3409376 49.5425648 23.464707 49.0816839 23.464707 49.0039637 23.464707 48.9233938 23.4621285 48.8379016 23.4543929L34.8640674 22.2785842 30.5246891 10.1182466 32.389715 10.6287951 36.7031865 11.8123394 43.8329793 13.7694421 49.4391969 22.4616596C49.7446373 22.9335302 49.7653627 23.2429536 49.7267617 23.3099953"/>
  </g>
</svg>
