<?xml version="1.0" encoding="UTF-8" standalone="no"?>
<svg
   xmlns:dc="http://purl.org/dc/elements/1.1/"
   xmlns:cc="http://creativecommons.org/ns#"
   xmlns:rdf="http://www.w3.org/1999/02/22-rdf-syntax-ns#"
   xmlns:svg="http://www.w3.org/2000/svg"
   xmlns="http://www.w3.org/2000/svg"
   xmlns:sodipodi="http://sodipodi.sourceforge.net/DTD/sodipodi-0.dtd"
   xmlns:inkscape="http://www.inkscape.org/namespaces/inkscape"
   width="321"
   height="27"
   viewBox="0 0 321 27"
   version="1.1"
   id="svg16"
   sodipodi:docname="logo_no_tagline.svg"
   inkscape:version="0.92.2 (5c3e80d, 2017-08-06)">
  <metadata
     id="metadata22">
    <rdf:RDF>
      <cc:Work
         rdf:about="">
        <dc:format>image/svg+xml</dc:format>
        <dc:type
           rdf:resource="http://purl.org/dc/dcmitype/StillImage" />
      </cc:Work>
    </rdf:RDF>
  </metadata>
  <defs
     id="defs20" />
  <sodipodi:namedview
     pagecolor="#ffffff"
     bordercolor="#666666"
     borderopacity="1"
     objecttolerance="10"
     gridtolerance="10"
     guidetolerance="10"
     inkscape:pageopacity="0"
     inkscape:pageshadow="2"
     inkscape:window-width="1918"
     inkscape:window-height="1059"
     id="namedview18"
     showgrid="false"
     inkscape:zoom="4.1490683"
     inkscape:cx="81.148504"
     inkscape:cy="-8.158522"
     inkscape:window-x="0"
     inkscape:window-y="0"
     inkscape:window-maximized="0"
     inkscape:current-layer="svg16" />
  <title
     id="title2">logo_full_en</title>
  <g
     id="g14"
     style="fill:none;fill-rule:evenodd"
     transform="translate(-0.5)">
    <path
       d="m 42.9,20.8 c -2.4,0.1 -10.3,0.7 -17,0.7 -7.2,0 -12.5,-0.3 -14.4,-0.5 V 5.9 C 13.4,5.7 18.4,5.4 26,5.4 34.7,5.4 40.9,6 42.9,6.2 v 14.6 m 6.6,3.5 V 1.9 C 49.5,1.9 41.7,0 25.8,0 7.9,0 0.5,2.4 0.5,2.4 V 7.8 C 0.5,7.8 3,7.1 4.7,6.7 L 4.8,20.2 C 4,20 2.4,19.8 0.5,19.2 v 5.5 c 0,0 10.1,2.3 25.3,2.3 16.6,0 23.7,-2.7 23.7,-2.7 m 68,0.8 v -5.4 c 0,0 -8.2,1.9 -24,1.9 -9.7,0 -15.4,-0.5 -17.3,-0.8 v -4.6 h 19.5 c 2.9,0 8.7,0 13.2,0.4 l -0.1,-6.2 c 0,0 -7.1,0.4 -13.1,0.4 L 76.2,10.9 V 6.2 c 2,-0.2 7.9,-0.8 17.3,-0.8 15.4,0 24,1.9 24,1.9 V 1.9 c 0,0 -8,-1.9 -24,-1.9 -16.1,0 -24,2 -24,1.9 l 0.1,23.2 c 0,0 8,1.9 23.9,1.9 15.8,0 24,-1.9 24,-1.9"
       id="path4"
       inkscape:connector-curvature="0"
       style="fill:#223058" />
    <path
       d="M 185.5,26 V 1.8 c 0,0 -7,-1.6 -21,-1.8 l -6,0.1 c -14.2,0.1 -21,1.7 -21,1.7 V 26 h 6.8 V 6 c 1.7,-0.2 6.6,-0.7 14.2,-0.7 v 7.3 c 0,6 -0.6,10.1 -0.6,10.1 h 7.3 c -0.7,-6 -0.7,-7.2 -0.7,-10.3 V 5.3 c 6.3,0 10.9,0.4 14.2,0.8 V 26 h 6.8"
       id="path6"
       inkscape:connector-curvature="0"
       style="fill:#e9892c" />
    <path
       d="M 246.8,5.9 V 20 c -3.8,0.4 -9.4,0.8 -17.3,0.8 -8.8,0 -15.1,-0.6 -17.2,-0.8 V 5.9 c 1.9,-0.2 7.8,-0.8 17.3,-0.8 7.7,0 13.4,0.3 17.2,0.8 m 6.7,18.6 V 1.8 c 0,0 -8,-1.8 -24,-1.8 -16.3,0 -24,1.8 -24,1.8 v 22.4 c 0,0 8,1.8 24,1.8 16.2,0 24,-1.5 24,-1.5 m 68,-0.4 V 10.3 l -41.2,0.1 V 6 c 1.8,-0.3 7.4,-0.8 17.3,-0.8 14.7,0 23.9,1.8 23.9,1.8 V 1.8 c 0,0 -8.5,-1.8 -24,-1.8 -15.5,0 -24,1.8 -24,1.8 v 13.9 l 41.3,-0.1 v 4.5 c -1.6,0.3 -6.4,0.8 -17.3,0.8 -14.2,0 -24,-1.9 -24,-1.9 v 5.1 c 0,0 8.2,1.9 24.1,1.9 15.7,0 23.9,-1.9 23.9,-1.9"
       id="path8"
       inkscape:connector-curvature="0"
       style="fill:#223058" />
    <g
       id="g12"
       style="fill:#223058" />
  </g>
</svg>
