<svg xmlns="http://www.w3.org/2000/svg" width="455" height="69" viewBox="0 0 455 69" xmlns:xlink="http://www.w3.org/1999/xlink">
  <defs>
    <polygon id="a" points="31.922 .656 .229 .656 .229 28.476 31.922 28.476 31.922 .656"/>
  </defs>
  <g fill="none" fill-rule="evenodd" transform="translate(0 -1)">
    <g transform="translate(0 .344)">
      <path fill="#E9892C" d="M44.0723 13.0635L41.8083 33.1675 20.2853 22.5225 22.0923 9.1005C22.3773 6.9635 23.6953 5.6395 25.5333 5.6395 26.1363 5.6395 26.7693 5.7785 27.4243 6.0505L44.0723 13.0635zM40.9336 38.3975L32.7616 68.9995 2.8876 60.8775C1.5376 60.5105.5796 59.7625.1936 58.7735-.1934 57.7845.0036 56.5855.7506 55.4015L18.4526 27.2775 40.9336 38.3975z"/>
      <polygon fill="#E9892C" points="68.341 1.74 68.151 20.195 47.001 32.348 49.182 12.999"/>
      <polygon fill="#E9892C" points="80.189 56.016 38.169 68.404 46.1 38.714 69.305 25.382"/>
      <g transform="translate(73)">
        <mask id="b" fill="white">
          <use xlink:href="#a"/>
        </mask>
        <path fill="#E9892C" d="M31.9219,28.4756 L0.2289,19.7456 L0.4259,0.6556 L18.0569,5.7976 C21.6569,6.8506 25.8929,10.8886 27.1099,14.4456 L31.9219,28.4756 Z" mask="url(#b)"/>
      </g>
      <path fill="#E9892C" d="M121.6914,57.8418 C121.6524,57.9178 121.2404,58.2218 120.1124,58.2218 C119.9214,58.2218 119.7254,58.2158 119.5154,58.1958 L85.3194,55.3058 L74.7004,25.4068 L79.2634,26.6618 L89.8204,29.5718 L107.2674,34.3838 L120.9874,55.7558 C121.7354,56.9158 121.7864,57.6768 121.6914,57.8418"/>
    </g>
    <g transform="translate(133 11.344)">
      <path fill="#223058" d="M15.9229 36.5498C17.1479 36.5128 18.2559 36.1968 19.2489 35.6038 20.2419 35.0098 21.0629 34.2308 21.7129 33.2658L21.7129 24.7758C21.0629 23.7918 20.2239 23.0268 19.1939 22.4798 18.1639 21.9318 17.0729 21.6678 15.9229 21.6858 14.9579 21.6678 14.0529 21.8348 13.2089 22.1868 12.3639 22.5398 11.6219 23.0408 10.9829 23.6908 10.3419 24.3398 9.8359 25.1188 9.4649 26.0288 9.0939 26.9378 8.9079 27.9678 8.9079 29.1178 8.9079 30.2498 9.0939 31.2758 9.4649 32.1938 9.8359 33.1118 10.3419 33.8918 10.9829 34.5318 11.6219 35.1718 12.3639 35.6588 13.2089 35.9928 14.0529 36.3268 14.9579 36.5128 15.9229 36.5498L15.9229 36.5498zM17.6769.3638L30.2859.3638 30.2859 36.0488 35.9079 36.0488 35.9079 43.6758 21.7129 43.6758 21.7129 42.5628C20.7109 43.0818 19.6849 43.4898 18.6369 43.7868 17.5879 44.0838 16.5259 44.2328 15.4499 44.2328 13.2409 44.2328 11.2139 43.8378 9.3679 43.0498 7.5219 42.2608 5.9349 41.1808 4.6079 39.8068 3.2809 38.4338 2.2459 36.8238 1.5039 34.9778.7619 33.1308.3909 31.1508.3909 29.0338.3909 26.9188.7569 24.9468 1.4899 23.1188 2.2239 21.2918 3.2439 19.6998 4.5519 18.3458 5.8599 16.9908 7.4289 15.9238 9.2569 15.1448 11.0839 14.3648 13.0929 13.9758 15.2819 13.9758 16.4879 13.9758 17.6209 14.0918 18.6789 14.3228 19.7359 14.5558 20.7469 14.8848 21.7129 15.3118L21.7129 7.9908 17.6769 7.9908 17.6769.3638zM53.7236 20.5449C52.6846 20.5449 51.7976 20.6699 51.0656 20.9209 50.3316 21.1709 49.7146 21.5149 49.2136 21.9499 48.7126 22.3869 48.3136 22.8829 48.0176 23.4399 47.7206 23.9959 47.4886 24.5809 47.3216 25.1929L59.3736 25.1929C59.2446 24.5629 59.0586 23.9689 58.8176 23.4119 58.5766 22.8559 58.2426 22.3629 57.8156 21.9369 57.3886 21.5099 56.8456 21.1709 56.1866 20.9209 55.5286 20.6699 54.7066 20.5449 53.7236 20.5449L53.7236 20.5449zM47.0716 31.0659L47.1546 31.9299C47.3586 32.7649 47.7056 33.4979 48.1986 34.1279 48.6896 34.7599 49.2696 35.2879 49.9376 35.7149 50.6066 36.1419 51.3476 36.4619 52.1646 36.6749 52.9816 36.8889 53.8066 36.9949 54.6426 36.9949 55.4776 36.9949 56.2706 36.9439 57.0226 36.8419 57.7736 36.7399 58.5016 36.6019 59.2066 36.4249 59.9116 36.2489 60.5986 36.0449 61.2666 35.8129 61.9346 35.5799 62.6126 35.3349 63.2986 35.0739L66.3606 40.7809C65.3026 41.4309 64.3326 41.9819 63.4526 42.4379 62.5706 42.8919 61.6846 43.2679 60.7936 43.5649 59.9036 43.8609 58.9566 44.0789 57.9536 44.2189 56.9526 44.3569 55.7836 44.4279 54.4476 44.4279 51.9426 44.4279 49.7146 44.0139 47.7666 43.1889 45.8186 42.3629 44.1806 41.2449 42.8536 39.8349 41.5276 38.4249 40.5156 36.7729 39.8206 34.8799 39.1236 32.9869 38.7766 30.9829 38.7766 28.8669 38.7766 26.7519 39.1426 24.7669 39.8756 22.9109 40.6086 21.0559 41.6436 19.4369 42.9796 18.0539 44.3156 16.6709 45.9116 15.5809 47.7666 14.7829 49.6216 13.9849 51.6816 13.5859 53.9466 13.5859 56.2096 13.5859 58.2186 13.9619 59.9726 14.7129 61.7266 15.4649 63.2056 16.5039 64.4116 17.8309 65.6186 19.1579 66.5456 20.7169 67.1966 22.5069 67.8446 24.2979 68.1986 26.2229 68.2536 28.2829 68.3096 28.7469 68.3416 29.2059 68.3506 29.6609 68.3606 30.1149 68.3466 30.5839 68.3096 31.0659L47.0716 31.0659zM72.6504 14.8389L85.8444 14.8389 85.8444 17.3439C87.0324 16.3979 88.3684 15.6459 89.8524 15.0889 91.3374 14.5319 92.8684 14.2539 94.4454 14.2539 96.6344 14.2539 98.5134 14.6399 100.0824 15.4089 101.6504 16.1799 102.8794 17.3539 103.7704 18.9309 104.3824 18.2439 105.0744 17.6169 105.8434 17.0519 106.6144 16.4849 107.4354 15.9929 108.3074 15.5759 109.1794 15.1579 110.0934 14.8339 111.0494 14.6019 112.0044 14.3699 112.9844 14.2539 113.9864 14.2539 117.5114 14.2539 120.2204 15.2289 122.1144 17.1769 124.0064 19.1249 124.9534 21.9739 124.9534 25.7219L124.9534 36.0489 129.0454 36.0489 129.0454 43.6759 115.8794 43.6759 115.8794 27.1419C115.8794 25.5089 115.4564 24.2289 114.6124 23.3009 113.7674 22.3729 112.5934 21.9079 111.0904 21.9079 110.0514 21.9079 109.0734 22.1549 108.1544 22.6469 107.2364 23.1379 106.3214 23.9869 105.4134 25.1929 105.4304 25.3979 105.4404 25.6069 105.4404 25.8189L105.4404 26.4739 105.4404 36.0489 109.6164 36.0489 109.6164 43.6759 96.4504 43.6759 96.4504 27.0859C96.4504 26.3069 96.3294 25.6019 96.0874 24.9709 95.8464 24.3399 95.5124 23.8019 95.0864 23.3569 94.6594 22.9109 94.1534 22.5629 93.5684 22.3129 92.9844 22.0619 92.3384 21.9279 91.6344 21.9079 90.7064 21.8909 89.7464 22.0949 88.7534 22.5219 87.7604 22.9479 86.8094 23.7359 85.9004 24.8869L85.9004 36.0489 90.5204 36.0489 90.5204 43.6759 72.5944 43.6759 72.5944 36.0489 76.8814 36.0489 76.8814 22.4649 72.6504 22.4649 72.6504 14.8389zM140.709 29.1455C140.709 30.2415 140.894 31.2475 141.266 32.1665 141.637 33.0835 142.143 33.8775 142.782 34.5455 143.423 35.2135 144.165 35.7335 145.009 36.1045 145.854 36.4755 146.758 36.6615 147.724 36.6615 148.707 36.6615 149.62 36.4805 150.465 36.1185 151.31 35.7565 152.042 35.2425 152.664 34.5735 153.285 33.9055 153.772 33.1125 154.125 32.1935 154.478 31.2755 154.654 30.2585 154.654 29.1455 154.654 27.9955 154.478 26.9565 154.125 26.0285 153.772 25.1005 153.285 24.3125 152.664 23.6625 152.042 23.0125 151.31 22.5165 150.465 22.1725 149.62 21.8305 148.707 21.6675 147.724 21.6855 146.758 21.6675 145.854 21.8305 145.009 22.1725 144.165 22.5165 143.423 23.0125 142.782 23.6625 142.143 24.3125 141.637 25.1005 141.266 26.0285 140.894 26.9565 140.709 27.9955 140.709 29.1455M132.386 29.1455C132.386 27.0485 132.766 25.0825 133.527 23.2455 134.288 21.4075 135.346 19.8025 136.7 18.4295 138.055 17.0565 139.669 15.9705 141.544 15.1725 143.418 14.3745 145.478 13.9755 147.724 13.9755 149.969 13.9755 152.033 14.3745 153.917 15.1725 155.8 15.9705 157.419 17.0565 158.773 18.4295 160.128 19.8025 161.182 21.4075 161.933 23.2455 162.685 25.0825 163.061 27.0485 163.061 29.1455 163.061 31.2435 162.693 33.2145 161.961 35.0605 161.228 36.9075 160.188 38.5215 158.844 39.9045 157.498 41.2875 155.883 42.3765 154 43.1745 152.116 43.9725 150.024 44.3725 147.724 44.3725 145.403 44.3725 143.302 43.9725 141.419 43.1745 139.535 42.3765 137.925 41.2915 136.589 39.9175 135.253 38.5445 134.219 36.9355 133.485 35.0885 132.752 33.2425 132.386 31.2615 132.386 29.1455M185.2305 22.3818C184.9425 21.9738 184.5205 21.6158 183.9635 21.3108 183.4075 21.0038 182.7255 20.7578 181.9175 20.5718 181.1115 20.3878 180.1965 20.2938 179.1765 20.2938 178.7875 20.2938 178.3695 20.3268 177.9235 20.3918 177.4785 20.4568 177.0655 20.5718 176.6855 20.7388 176.3045 20.9058 175.9895 21.1338 175.7395 21.4218 175.4885 21.7088 175.3635 22.0748 175.3635 22.5218 175.3635 22.7438 175.3955 22.9568 175.4595 23.1608 175.5255 23.3648 175.6505 23.5608 175.8355 23.7458 176.0215 23.9318 176.2765 24.1038 176.6015 24.2608 176.9255 24.4188 177.3485 24.5438 177.8685 24.6368L183.1015 25.6658C184.9945 26.0378 186.5815 26.5008 187.8615 27.0588 189.1415 27.6148 190.1705 28.2648 190.9515 29.0068 191.7305 29.7488 192.2915 30.5748 192.6345 31.4848 192.9775 32.3938 193.1495 33.3768 193.1495 34.4348 193.1495 36.0858 192.7645 37.5338 191.9945 38.7768 191.2245 40.0208 190.2125 41.0548 188.9605 41.8808 187.7085 42.7058 186.2975 43.3278 184.7295 43.7448 183.1615 44.1628 181.5795 44.3718 179.9835 44.3718 178.9445 44.3718 178.0025 44.3068 177.1585 44.1768 176.3135 44.0468 175.5525 43.8708 174.8765 43.6478 174.1985 43.4248 173.5955 43.1608 173.0665 42.8548 172.5385 42.5488 172.0505 42.2098 171.6055 41.8388L166.5675 41.8388 166.5675 34.1008 174.4445 34.1008 174.4445 34.2678C174.4625 34.8058 174.6295 35.2748 174.9455 35.6728 175.2605 36.0718 175.6735 36.4108 176.1845 36.6898 176.6945 36.9678 177.2745 37.1758 177.9235 37.3158 178.5735 37.4548 179.2595 37.5248 179.9835 37.5248 181.6535 37.5248 182.8695 37.3068 183.6295 36.8698 184.3905 36.4348 184.7715 35.8728 184.7715 35.1858 184.7715 34.6488 184.5855 34.1888 184.2145 33.8088 183.8425 33.4278 183.1845 33.1258 182.2385 32.9028L176.8935 31.7628C173.5355 31.1128 171.0015 30.0318 169.2945 28.5198 167.5875 27.0068 166.7345 25.0638 166.7345 22.6888 166.7345 21.2958 167.0585 20.0288 167.7085 18.8888 168.3575 17.7468 169.2395 16.7738 170.3525 15.9658 171.4655 15.1578 172.7695 14.5318 174.2635 14.0868 175.7565 13.6418 177.3575 13.4188 179.0655 13.4188 180.2345 13.4188 181.2735 13.4878 182.1825 13.6278 183.0915 13.7668 183.9085 13.9468 184.6315 14.1708 185.3555 14.3938 185.9915 14.6568 186.5395 14.9638 187.0855 15.2698 187.5735 15.5898 188.0005 15.9238L192.8435 15.9238 192.8435 23.6618 185.6625 23.6618C185.6625 23.2168 185.5185 22.7898 185.2305 22.3818"/>
      <path fill="#E9892C" d="M218.0625,18.875 C216.7635,18.875 215.4505,19.139 214.1245,19.668 C212.7965,20.196 211.5775,20.916 210.4635,21.825 L206.9285,37.106 C207.4115,37.719 208.1575,38.253 209.1685,38.707 C210.1805,39.162 211.5305,39.389 213.2195,39.389 C214.6485,39.389 216.0585,39.097 217.4505,38.513 C218.8415,37.928 220.0895,37.084 221.1945,35.979 C222.2975,34.876 223.1935,33.525 223.8795,31.93 C224.5665,30.334 224.9105,28.516 224.9105,26.474 C224.9105,25.286 224.7435,24.224 224.4095,23.286 C224.0755,22.35 223.6065,21.557 223.0025,20.906 C222.4005,20.257 221.6815,19.756 220.8455,19.403 C220.0105,19.051 219.0835,18.875 218.0625,18.875 L218.0625,18.875 Z M200.9715,14.839 L211.9115,14.839 L211.5215,16.731 C212.8015,15.841 214.0825,15.178 215.3625,14.741 C216.6425,14.306 217.9795,14.087 219.3715,14.087 C220.9485,14.087 222.4275,14.394 223.8105,15.006 C225.1925,15.618 226.3895,16.453 227.4015,17.511 C228.4125,18.568 229.2105,19.816 229.7945,21.255 C230.3795,22.692 230.6715,24.237 230.6715,25.889 C230.6715,28.58 230.1995,31.048 229.2515,33.293 C228.3055,35.539 227.0205,37.469 225.3975,39.083 C223.7735,40.697 221.8805,41.95 219.7185,42.841 C217.5565,43.731 215.2605,44.177 212.8305,44.177 C211.4185,44.177 210.0965,43.968 208.8635,43.551 C207.6285,43.133 206.6125,42.59 205.8155,41.922 L203.5045,51.998 L208.2645,51.998 L207.1785,56.786 L196.6855,56.786 L205.3415,19.626 L199.8305,19.626 L200.9715,14.839 Z"/>
      <polygon fill="#E9892C" points="240.164 .364 251.353 .364 242.446 38.887 247.234 38.887 246.148 43.676 235.738 43.676 244.59 5.151 239.022 5.151"/>
      <path fill="#E9892C" d="M266.4951 39.3887C267.1821 39.3887 267.8831 39.3057 268.5971 39.1387 269.3111 38.9717 269.9931 38.7587 270.6421 38.4977 271.2921 38.2397 271.9041 37.9377 272.4801 37.5937 273.0551 37.2507 273.5651 36.8937 274.0111 36.5227L277.6011 21.1017C277.1191 20.4897 276.3671 19.9647 275.3471 19.5287 274.3261 19.0927 272.9901 18.8747 271.3391 18.8747 269.9091 18.8747 268.5001 19.1667 267.1071 19.7507 265.7161 20.3357 264.4731 21.1807 263.3781 22.2847 262.2831 23.3887 261.3911 24.7427 260.7061 26.3487 260.0181 27.9537 259.6761 29.7777 259.6761 31.8187 259.6761 33.0057 259.8431 34.0687 260.1771 35.0047 260.5111 35.9427 260.9741 36.7357 261.5681 37.3847 262.1621 38.0347 262.8811 38.5317 263.7251 38.8737 264.5701 39.2177 265.4931 39.3887 266.4951 39.3887L266.4951 39.3887zM272.8141 41.7277C271.5701 42.5627 270.3231 43.1797 269.0701 43.5777 267.8171 43.9777 266.5231 44.1767 265.1871 44.1767 263.6091 44.1767 262.1351 43.8707 260.7621 43.2577 259.3881 42.6457 258.1951 41.8107 257.1841 40.7527 256.1731 39.6957 255.3751 38.4477 254.7911 37.0087 254.2061 35.5717 253.9141 34.0267 253.9141 32.3747 253.9141 29.6847 254.3871 27.2157 255.3341 24.9707 256.2801 22.7257 257.5641 20.7947 259.1881 19.1807 260.8121 17.5667 262.7051 16.3137 264.8671 15.4227 267.0281 14.5327 269.3251 14.0867 271.7561 14.0867 273.1481 14.0867 274.4561 14.2957 275.6811 14.7127 276.9061 15.1307 277.9081 15.6737 278.6871 16.3417L279.0491 14.8387 284.6431 14.8387 279.0771 38.8877 283.5581 38.8877 282.4731 43.6757 272.3691 43.6757 272.8141 41.7277zM292.9395 14.8389L303.8225 14.8389 303.1275 17.7889C304.4445 16.6939 305.8865 15.8409 307.4555 15.2289 309.0235 14.6159 310.6795 14.3099 312.4235 14.3099 313.9085 14.3099 315.2495 14.5319 316.4465 14.9779 317.6425 15.4229 318.6215 16.1009 319.3825 17.0099 320.1435 17.9189 320.6445 19.0509 320.8855 20.4049 321.1265 21.7609 321.0435 23.3379 320.6345 25.1379L317.4615 38.8879 321.5535 38.8879 320.4675 43.6759 310.7255 43.6759 314.8735 25.8329C315.3925 23.6439 315.2255 21.9919 314.3725 20.8789 313.5185 19.7659 312.0715 19.2089 310.0305 19.2089 308.5825 19.2089 307.2095 19.5199 305.9105 20.1409 304.6115 20.7629 303.3775 21.6299 302.2085 22.7439L297.3925 43.6759 291.7425 43.6759 297.3095 19.6259 291.7975 19.6259 292.9395 14.8389z"/>
    </g>
  </g>
</svg>
